<?xml version="1.0" encoding="UTF-8" standalone="no"?>
<!DOCTYPE svg PUBLIC "-//W3C//DTD SVG 1.1//EN"
 "http://www.w3.org/Graphics/SVG/1.1/DTD/svg11.dtd">
<!-- Generated by graphviz version 2.38.0 (20140413.2041)
 -->
<!-- Title: %3 Pages: 1 -->
<svg width="576pt" height="423pt"
 viewBox="0.00 0.00 576.00 423.22" xmlns="http://www.w3.org/2000/svg" xmlns:xlink="http://www.w3.org/1999/xlink">
<g id="graph0" class="graph" transform="scale(0.894753 0.894753) rotate(0) translate(4 469)">
<title>%3</title>
<polygon fill="white" stroke="none" points="-4,4 -4,-469 639.753,-469 639.753,4 -4,4"/>
<!-- 10.1063/1.108372 -->
<g id="node1" class="node"><title>10.1063/1.108372</title>
<ellipse fill="#00cdcd" stroke="#00cdcd" cx="63.6943" cy="-410" rx="47.3916" ry="18"/>
<text text-anchor="middle" x="63.6943" y="-406.3" font-family="Times,serif" font-size="14.00">Proot1992</text>
</g>
<!-- 10.1103/PhysRevB.69.195309 -->
<g id="node2" class="node"><title>10.1103/PhysRevB.69.195309</title>
<ellipse fill="#ffd700" stroke="#ffd700" cx="408.02" cy="-410" rx="63.8893" ry="18"/>
<text text-anchor="middle" x="408.02" y="-406.3" font-family="Times,serif" font-size="14.00">Heitmann2004</text>
</g>
<!-- 10.1063/1.108372&#45;&gt;10.1103/PhysRevB.69.195309 -->
<g id="edge29" class="edge"><title>10.1063/1.108372&#45;&gt;10.1103/PhysRevB.69.195309</title>
<path fill="none" stroke="#b4cdcd" stroke-width="0.7" d="M111.218,-410C168.513,-410 266.502,-410 333.897,-410"/>
<polygon fill="#b4cdcd" stroke="#b4cdcd" stroke-width="0.7" points="334.024,-413.5 344.024,-410 334.024,-406.5 334.024,-413.5"/>
</g>
<!-- 10.1103/PhysRevB.64.125325 -->
<g id="node4" class="node"><title>10.1103/PhysRevB.64.125325</title>
<ellipse fill="#ffd700" stroke="#ffd700" cx="232.933" cy="-447" rx="55.4913" ry="18"/>
<text text-anchor="middle" x="232.933" y="-443.3" font-family="Times,serif" font-size="14.00">Cantele2001</text>
</g>
<!-- 10.1063/1.108372&#45;&gt;10.1103/PhysRevB.64.125325 -->
<g id="edge2" class="edge"><title>10.1063/1.108372&#45;&gt;10.1103/PhysRevB.64.125325</title>
<path fill="none" stroke="black" stroke-width="1.4" d="M105.178,-418.957C126.747,-423.729 153.59,-429.667 177.013,-434.849"/>
<polygon fill="black" stroke="black" stroke-width="1.4" points="176.297,-438.276 186.817,-437.018 177.809,-431.441 176.297,-438.276"/>
</g>
<!-- 10.1103/PhysRevB.48.11024 -->
<g id="node5" class="node"><title>10.1103/PhysRevB.48.11024</title>
<ellipse fill="#ffd700" stroke="#ffd700" cx="232.933" cy="-347" rx="55.7903" ry="18"/>
<text text-anchor="middle" x="232.933" y="-343.3" font-family="Times,serif" font-size="14.00">Delerue1993</text>
</g>
<!-- 10.1063/1.108372&#45;&gt;10.1103/PhysRevB.48.11024 -->
<g id="edge1" class="edge"><title>10.1063/1.108372&#45;&gt;10.1103/PhysRevB.48.11024</title>
<path fill="none" stroke="black" stroke-width="1.4" d="M98.1355,-397.402C123.46,-387.862 158.528,-374.652 186.41,-364.149"/>
<polygon fill="black" stroke="black" stroke-width="1.4" points="187.82,-367.358 195.944,-360.557 185.352,-360.807 187.82,-367.358"/>
</g>
<!-- 10.1063/1.3284083 -->
<g id="node3" class="node"><title>10.1063/1.3284083</title>
<ellipse fill="red" stroke="red" cx="574.659" cy="-236" rx="61.1893" ry="18"/>
<text text-anchor="middle" x="574.659" y="-232.3" font-family="Times,serif" font-size="14.00">Lepadatu2010</text>
</g>
<!-- 10.1103/PhysRevB.69.195309&#45;&gt;10.1063/1.3284083 -->
<g id="edge3" class="edge"><title>10.1103/PhysRevB.69.195309&#45;&gt;10.1063/1.3284083</title>
<path fill="none" stroke="black" stroke-width="1.4" d="M453.283,-397.219C461.878,-393.496 470.424,-388.816 477.564,-383 517.841,-350.193 547.07,-295.944 562.117,-263.324"/>
<polygon fill="black" stroke="black" stroke-width="1.4" points="565.426,-264.499 566.328,-253.943 559.039,-261.633 565.426,-264.499"/>
</g>
<!-- 10.1103/PhysRevB.64.125325&#45;&gt;10.1063/1.3284083 -->
<g id="edge4" class="edge"><title>10.1103/PhysRevB.64.125325&#45;&gt;10.1063/1.3284083</title>
<path fill="none" stroke="black" stroke-width="1.4" d="M278.559,-457.236C330.854,-466.578 417.929,-473.596 477.564,-434 536.503,-394.867 560.453,-308.764 569.195,-264.106"/>
<polygon fill="black" stroke="black" stroke-width="1.4" points="572.649,-264.679 571.015,-254.211 565.764,-263.413 572.649,-264.679"/>
</g>
<!-- 10.1103/PhysRevB.48.11024&#45;&gt;10.1103/PhysRevB.69.195309 -->
<g id="edge6" class="edge"><title>10.1103/PhysRevB.48.11024&#45;&gt;10.1103/PhysRevB.69.195309</title>
<path fill="none" stroke="black" stroke-width="1.4" d="M270.64,-360.361C296.294,-369.698 330.811,-382.262 358.7,-392.413"/>
<polygon fill="black" stroke="black" stroke-width="1.4" points="357.669,-395.762 368.264,-395.893 360.064,-389.184 357.669,-395.762"/>
</g>
<!-- 10.1103/PhysRevB.48.11024&#45;&gt;10.1063/1.3284083 -->
<g id="edge30" class="edge"><title>10.1103/PhysRevB.48.11024&#45;&gt;10.1063/1.3284083</title>
<path fill="none" stroke="#b4cdcd" stroke-width="0.7" d="M272.108,-360.006C322.106,-374.674 411.195,-392.532 477.564,-360 518.388,-339.989 546.832,-293.349 561.682,-263.318"/>
<polygon fill="#b4cdcd" stroke="#b4cdcd" stroke-width="0.7" points="564.882,-264.739 566.024,-254.206 558.562,-261.728 564.882,-264.739"/>
</g>
<!-- 10.1103/PhysRevB.72.075423 -->
<g id="node6" class="node"><title>10.1103/PhysRevB.72.075423</title>
<ellipse fill="#ffd700" stroke="#ffd700" cx="408.02" cy="-336" rx="47.3916" ry="18"/>
<text text-anchor="middle" x="408.02" y="-332.3" font-family="Times,serif" font-size="14.00">Trani2005</text>
</g>
<!-- 10.1103/PhysRevB.48.11024&#45;&gt;10.1103/PhysRevB.72.075423 -->
<g id="edge5" class="edge"><title>10.1103/PhysRevB.48.11024&#45;&gt;10.1103/PhysRevB.72.075423</title>
<path fill="none" stroke="black" stroke-width="1.4" d="M288.224,-343.55C308.148,-342.283 330.734,-340.848 350.823,-339.571"/>
<polygon fill="black" stroke="black" stroke-width="1.4" points="351.315,-343.047 361.073,-338.92 350.871,-336.061 351.315,-343.047"/>
</g>
<!-- 10.1103/PhysRevB.72.075423&#45;&gt;10.1063/1.3284083 -->
<g id="edge7" class="edge"><title>10.1103/PhysRevB.72.075423&#45;&gt;10.1063/1.3284083</title>
<path fill="none" stroke="black" stroke-width="1.4" d="M444.39,-324.194C455.317,-319.99 467.197,-314.832 477.564,-309 502.536,-294.951 528.252,-275.079 546.79,-259.615"/>
<polygon fill="black" stroke="black" stroke-width="1.4" points="549.149,-262.203 554.522,-253.072 544.628,-256.859 549.149,-262.203"/>
</g>
<!-- 10.1063/1.371663 -->
<g id="node7" class="node"><title>10.1063/1.371663</title>
<ellipse fill="#00cdcd" stroke="#00cdcd" cx="63.6943" cy="-275" rx="55.7903" ry="18"/>
<text text-anchor="middle" x="63.6943" y="-271.3" font-family="Times,serif" font-size="14.00">Linnros1999</text>
</g>
<!-- 10.1063/1.371663&#45;&gt;10.1103/PhysRevB.69.195309 -->
<g id="edge11" class="edge"><title>10.1063/1.371663&#45;&gt;10.1103/PhysRevB.69.195309</title>
<path fill="none" stroke="black" stroke-width="1.4" d="M77.1437,-292.497C93.9805,-314.699 126.216,-352.344 163.389,-371 193.081,-385.902 276.237,-397.063 337.166,-403.546"/>
<polygon fill="black" stroke="black" stroke-width="1.4" points="336.813,-407.028 347.123,-404.585 337.54,-400.066 336.813,-407.028"/>
</g>
<!-- 10.1063/1.1502183 -->
<g id="node8" class="node"><title>10.1063/1.1502183</title>
<ellipse fill="#ffd700" stroke="#ffd700" cx="232.933" cy="-299" rx="69.5877" ry="18"/>
<text text-anchor="middle" x="232.933" y="-295.3" font-family="Times,serif" font-size="14.00">Torchynska2002</text>
</g>
<!-- 10.1063/1.371663&#45;&gt;10.1063/1.1502183 -->
<g id="edge10" class="edge"><title>10.1063/1.371663&#45;&gt;10.1063/1.1502183</title>
<path fill="none" stroke="black" stroke-width="1.4" d="M115.325,-282.266C129.915,-284.36 146.1,-286.682 161.653,-288.914"/>
<polygon fill="black" stroke="black" stroke-width="1.4" points="161.364,-292.409 171.76,-290.365 162.358,-285.48 161.364,-292.409"/>
</g>
<!-- 10.1103/PhysRevB.69.155311 -->
<g id="node9" class="node"><title>10.1103/PhysRevB.69.155311</title>
<ellipse fill="#ffd700" stroke="#ffd700" cx="232.933" cy="-251" rx="52.7911" ry="18"/>
<text text-anchor="middle" x="232.933" y="-247.3" font-family="Times,serif" font-size="14.00">Dovrat2004</text>
</g>
<!-- 10.1063/1.371663&#45;&gt;10.1103/PhysRevB.69.155311 -->
<g id="edge9" class="edge"><title>10.1063/1.371663&#45;&gt;10.1103/PhysRevB.69.155311</title>
<path fill="none" stroke="black" stroke-width="1.4" d="M115.325,-267.734C133.824,-265.079 154.888,-262.057 173.976,-259.317"/>
<polygon fill="black" stroke="black" stroke-width="1.4" points="174.649,-262.757 184.05,-257.872 173.654,-255.828 174.649,-262.757"/>
</g>
<!-- 10.1038/nmat1307 -->
<g id="node11" class="node"><title>10.1038/nmat1307</title>
<ellipse fill="#ffd700" stroke="#ffd700" cx="232.933" cy="-203" rx="55.7903" ry="18"/>
<text text-anchor="middle" x="232.933" y="-199.3" font-family="Times,serif" font-size="14.00">Walters2005</text>
</g>
<!-- 10.1063/1.371663&#45;&gt;10.1038/nmat1307 -->
<g id="edge8" class="edge"><title>10.1063/1.371663&#45;&gt;10.1038/nmat1307</title>
<path fill="none" stroke="black" stroke-width="1.4" d="M94.084,-259.596C113.497,-249.699 139.645,-236.892 163.389,-227 169.801,-224.329 176.628,-221.696 183.394,-219.208"/>
<polygon fill="black" stroke="black" stroke-width="1.4" points="184.982,-222.357 193.208,-215.68 182.614,-215.769 184.982,-222.357"/>
</g>
<!-- 10.1063/1.1502183&#45;&gt;10.1063/1.3284083 -->
<g id="edge12" class="edge"><title>10.1063/1.1502183&#45;&gt;10.1063/1.3284083</title>
<path fill="none" stroke="black" stroke-width="1.4" d="M301.66,-296.004C350.979,-292.736 419.097,-285.962 477.564,-272 495.381,-267.745 514.387,-261.101 530.754,-254.673"/>
<polygon fill="black" stroke="black" stroke-width="1.4" points="532.083,-257.911 540.056,-250.933 529.472,-251.416 532.083,-257.911"/>
</g>
<!-- 10.1103/PhysRevB.69.155311&#45;&gt;10.1063/1.3284083 -->
<g id="edge31" class="edge"><title>10.1103/PhysRevB.69.155311&#45;&gt;10.1063/1.3284083</title>
<path fill="none" stroke="#b4cdcd" stroke-width="0.7" d="M282.663,-257.335C331.984,-262.684 410.349,-268.267 477.564,-260 491.984,-258.226 507.353,-255.009 521.474,-251.495"/>
<polygon fill="#b4cdcd" stroke="#b4cdcd" stroke-width="0.7" points="522.7,-254.793 531.505,-248.899 520.947,-248.016 522.7,-254.793"/>
</g>
<!-- 10.1103/PhysRevB.69.155311&#45;&gt;10.1103/PhysRevB.72.075423 -->
<g id="edge13" class="edge"><title>10.1103/PhysRevB.69.155311&#45;&gt;10.1103/PhysRevB.72.075423</title>
<path fill="none" stroke="black" stroke-width="1.4" d="M272.516,-263.058C282.43,-266.549 292.975,-270.614 302.476,-275 327.572,-286.585 354.478,-302.369 374.709,-314.979"/>
<polygon fill="black" stroke="black" stroke-width="1.4" points="372.899,-317.975 383.225,-320.344 376.63,-312.052 372.899,-317.975"/>
</g>
<!-- 10.1557/jmr.2008.0358 -->
<g id="node10" class="node"><title>10.1557/jmr.2008.0358</title>
<ellipse fill="#ffd700" stroke="#ffd700" cx="408.02" cy="-236" rx="69.5877" ry="18"/>
<text text-anchor="middle" x="408.02" y="-232.3" font-family="Times,serif" font-size="14.00">Teodorescu2008</text>
</g>
<!-- 10.1103/PhysRevB.69.155311&#45;&gt;10.1557/jmr.2008.0358 -->
<g id="edge14" class="edge"><title>10.1103/PhysRevB.69.155311&#45;&gt;10.1557/jmr.2008.0358</title>
<path fill="none" stroke="black" stroke-width="1.4" d="M284.462,-246.621C299.196,-245.344 315.624,-243.92 331.545,-242.541"/>
<polygon fill="black" stroke="black" stroke-width="1.4" points="332.25,-245.993 341.911,-241.642 331.646,-239.019 332.25,-245.993"/>
</g>
<!-- 10.1557/jmr.2008.0358&#45;&gt;10.1063/1.3284083 -->
<g id="edge15" class="edge"><title>10.1557/jmr.2008.0358&#45;&gt;10.1063/1.3284083</title>
<path fill="none" stroke="black" stroke-width="1.4" d="M477.888,-236C486.282,-236 494.868,-236 503.284,-236"/>
<polygon fill="black" stroke="black" stroke-width="1.4" points="503.441,-239.5 513.441,-236 503.441,-232.5 503.441,-239.5"/>
</g>
<!-- 10.1038/nmat1307&#45;&gt;10.1063/1.3284083 -->
<g id="edge32" class="edge"><title>10.1038/nmat1307&#45;&gt;10.1063/1.3284083</title>
<path fill="none" stroke="#b4cdcd" stroke-width="0.7" d="M288.891,-201.787C338.459,-201.461 413.237,-202.88 477.564,-212 491.812,-214.02 507.014,-217.284 521.023,-220.763"/>
<polygon fill="#b4cdcd" stroke="#b4cdcd" stroke-width="0.7" points="520.427,-224.223 530.983,-223.319 522.167,-217.443 520.427,-224.223"/>
</g>
<!-- 10.1038/nmat1307&#45;&gt;10.1557/jmr.2008.0358 -->
<g id="edge16" class="edge"><title>10.1038/nmat1307&#45;&gt;10.1557/jmr.2008.0358</title>
<path fill="none" stroke="black" stroke-width="1.4" d="M281.688,-212.105C300.178,-215.63 321.646,-219.723 341.535,-223.515"/>
<polygon fill="black" stroke="black" stroke-width="1.4" points="340.979,-226.972 351.458,-225.407 342.29,-220.096 340.979,-226.972"/>
</g>
<!-- 10.1126/science.271.5251.933 -->
<g id="node12" class="node"><title>10.1126/science.271.5251.933</title>
<ellipse fill="#00cdcd" stroke="#00cdcd" cx="63.6943" cy="-143" rx="63.8893" ry="18"/>
<text text-anchor="middle" x="63.6943" y="-139.3" font-family="Times,serif" font-size="14.00">Alivisatos1996</text>
</g>
<!-- 10.1126/science.271.5251.933&#45;&gt;10.1103/PhysRevB.69.155311 -->
<g id="edge18" class="edge"><title>10.1126/science.271.5251.933&#45;&gt;10.1103/PhysRevB.69.155311</title>
<path fill="none" stroke="black" stroke-width="1.4" d="M81.3717,-160.632C99.8808,-179.326 131.384,-208.634 163.389,-227 169.267,-230.373 175.698,-233.388 182.191,-236.046"/>
<polygon fill="black" stroke="black" stroke-width="1.4" points="181.101,-239.376 191.691,-239.685 183.605,-232.839 181.101,-239.376"/>
</g>
<!-- 10.1103/PhysRevB.61.4743 -->
<g id="node13" class="node"><title>10.1103/PhysRevB.61.4743</title>
<ellipse fill="#ffd700" stroke="#ffd700" cx="408.02" cy="-162" rx="51.1914" ry="18"/>
<text text-anchor="middle" x="408.02" y="-158.3" font-family="Times,serif" font-size="14.00">Chang2000</text>
</g>
<!-- 10.1126/science.271.5251.933&#45;&gt;10.1103/PhysRevB.61.4743 -->
<g id="edge20" class="edge"><title>10.1126/science.271.5251.933&#45;&gt;10.1103/PhysRevB.61.4743</title>
<path fill="none" stroke="black" stroke-width="1.4" d="M126.291,-146.419C188.835,-149.89 285.051,-155.23 347.016,-158.67"/>
<polygon fill="black" stroke="black" stroke-width="1.4" points="346.856,-162.166 357.035,-159.226 347.244,-155.177 346.856,-162.166"/>
</g>
<!-- 10.1103/PhysRevB.66.085310 -->
<g id="node14" class="node"><title>10.1103/PhysRevB.66.085310</title>
<ellipse fill="#ffd700" stroke="#ffd700" cx="408.02" cy="-114" rx="66.0889" ry="18"/>
<text text-anchor="middle" x="408.02" y="-110.3" font-family="Times,serif" font-size="14.00">Fonoberov2002</text>
</g>
<!-- 10.1126/science.271.5251.933&#45;&gt;10.1103/PhysRevB.66.085310 -->
<g id="edge19" class="edge"><title>10.1126/science.271.5251.933&#45;&gt;10.1103/PhysRevB.66.085310</title>
<path fill="none" stroke="black" stroke-width="1.4" d="M125.107,-137.882C183.563,-132.93 272.22,-125.42 334.469,-120.146"/>
<polygon fill="black" stroke="black" stroke-width="1.4" points="334.941,-123.619 344.609,-119.287 334.35,-116.644 334.941,-123.619"/>
</g>
<!-- 10.1103/PhysRevB.57.9780 -->
<g id="node15" class="node"><title>10.1103/PhysRevB.57.9780</title>
<ellipse fill="#ffd700" stroke="#ffd700" cx="408.02" cy="-18" rx="51.1914" ry="18"/>
<text text-anchor="middle" x="408.02" y="-14.3" font-family="Times,serif" font-size="14.00">Chang1998</text>
</g>
<!-- 10.1126/science.271.5251.933&#45;&gt;10.1103/PhysRevB.57.9780 -->
<g id="edge17" class="edge"><title>10.1126/science.271.5251.933&#45;&gt;10.1103/PhysRevB.57.9780</title>
<path fill="none" stroke="black" stroke-width="1.4" d="M79.0339,-125.366C96.6235,-105.058 128.441,-72.3937 163.389,-56 221.583,-28.7014 295.328,-20.3532 346.36,-18.1165"/>
<polygon fill="black" stroke="black" stroke-width="1.4" points="346.709,-21.6061 356.572,-17.7371 346.449,-14.6109 346.709,-21.6061"/>
</g>
<!-- 10.1103/PhysRevB.61.4743&#45;&gt;10.1063/1.3284083 -->
<g id="edge21" class="edge"><title>10.1103/PhysRevB.61.4743&#45;&gt;10.1063/1.3284083</title>
<path fill="none" stroke="black" stroke-width="1.4" d="M443.76,-175.065C454.657,-179.329 466.679,-184.203 477.564,-189 496.348,-197.278 516.826,-207.169 534.033,-215.738"/>
<polygon fill="black" stroke="black" stroke-width="1.4" points="532.716,-218.992 543.224,-220.343 535.851,-212.734 532.716,-218.992"/>
</g>
<!-- 10.1103/PhysRevB.66.085310&#45;&gt;10.1063/1.3284083 -->
<g id="edge22" class="edge"><title>10.1103/PhysRevB.66.085310&#45;&gt;10.1063/1.3284083</title>
<path fill="none" stroke="black" stroke-width="1.4" d="M455,-126.805C462.823,-129.895 470.647,-133.605 477.564,-138 508.239,-157.489 536.471,-188.54 554.283,-210.459"/>
<polygon fill="black" stroke="black" stroke-width="1.4" points="551.616,-212.728 560.583,-218.37 557.091,-208.367 551.616,-212.728"/>
</g>
<!-- 10.1103/PhysRevB.57.9780&#45;&gt;10.1063/1.3284083 -->
<g id="edge23" class="edge"><title>10.1103/PhysRevB.57.9780&#45;&gt;10.1063/1.3284083</title>
<path fill="none" stroke="black" stroke-width="1.4" d="M452.022,-27.3619C461.19,-30.8373 470.29,-35.5704 477.564,-42 528.838,-87.3211 555.786,-166.306 567.074,-208.146"/>
<polygon fill="black" stroke="black" stroke-width="1.4" points="563.715,-209.137 569.611,-217.94 570.491,-207.382 563.715,-209.137"/>
</g>
<!-- 10.1021/j100054a032 -->
<g id="node16" class="node"><title>10.1021/j100054a032</title>
<ellipse fill="#00cdcd" stroke="#00cdcd" cx="232.933" cy="-80" rx="50.0912" ry="18"/>
<text text-anchor="middle" x="232.933" y="-76.3" font-family="Times,serif" font-size="14.00">Mews1994</text>
</g>
<!-- 10.1021/j100054a032&#45;&gt;10.1103/PhysRevB.61.4743 -->
<g id="edge27" class="edge"><title>10.1021/j100054a032&#45;&gt;10.1103/PhysRevB.61.4743</title>
<path fill="none" stroke="black" stroke-width="1.4" d="M259.088,-95.5456C279.886,-108.007 310.448,-125.428 338.476,-138 345.199,-141.016 352.424,-143.905 359.572,-146.569"/>
<polygon fill="black" stroke="black" stroke-width="1.4" points="358.623,-149.947 369.217,-150.052 361,-143.363 358.623,-149.947"/>
</g>
<!-- 10.1021/j100054a032&#45;&gt;10.1103/PhysRevB.66.085310 -->
<g id="edge25" class="edge"><title>10.1021/j100054a032&#45;&gt;10.1103/PhysRevB.66.085310</title>
<path fill="none" stroke="black" stroke-width="1.4" d="M277.163,-88.4919C297.309,-92.4491 321.672,-97.235 343.829,-101.587"/>
<polygon fill="black" stroke="black" stroke-width="1.4" points="343.344,-105.059 353.831,-103.552 344.693,-98.1899 343.344,-105.059"/>
</g>
<!-- 10.1021/j100054a032&#45;&gt;10.1103/PhysRevB.57.9780 -->
<g id="edge24" class="edge"><title>10.1021/j100054a032&#45;&gt;10.1103/PhysRevB.57.9780</title>
<path fill="none" stroke="black" stroke-width="1.4" d="M268.743,-67.2301C289.059,-59.8068 315.195,-50.3068 338.476,-42 345.908,-39.3486 353.801,-36.5593 361.488,-33.858"/>
<polygon fill="black" stroke="black" stroke-width="1.4" points="362.784,-37.1125 371.062,-30.5005 360.468,-30.5069 362.784,-37.1125"/>
</g>
<!-- 10.1103/PhysRevB.69.045301 -->
<g id="node17" class="node"><title>10.1103/PhysRevB.69.045301</title>
<ellipse fill="#ffd700" stroke="#ffd700" cx="408.02" cy="-66" rx="64.189" ry="18"/>
<text text-anchor="middle" x="408.02" y="-62.3" font-family="Times,serif" font-size="14.00">McGinley2004</text>
</g>
<!-- 10.1021/j100054a032&#45;&gt;10.1103/PhysRevB.69.045301 -->
<g id="edge26" class="edge"><title>10.1021/j100054a032&#45;&gt;10.1103/PhysRevB.69.045301</title>
<path fill="none" stroke="black" stroke-width="1.4" d="M282.147,-76.1002C298.781,-74.7548 317.782,-73.2179 335.858,-71.7558"/>
<polygon fill="black" stroke="black" stroke-width="1.4" points="336.391,-75.2243 346.076,-70.9294 335.826,-68.2471 336.391,-75.2243"/>
</g>
<!-- 10.1103/PhysRevB.69.045301&#45;&gt;10.1063/1.3284083 -->
<g id="edge28" class="edge"><title>10.1103/PhysRevB.69.045301&#45;&gt;10.1063/1.3284083</title>
<path fill="none" stroke="black" stroke-width="1.4" d="M456.477,-78.0214C463.971,-81.1773 471.302,-85.1126 477.564,-90 518.319,-121.81 547.39,-175.947 562.277,-208.602"/>
<polygon fill="black" stroke="black" stroke-width="1.4" points="559.189,-210.273 566.439,-217.999 565.589,-207.438 559.189,-210.273"/>
</g>
</g>
</svg>
