<?xml version="1.0" encoding="UTF-8" standalone="no"?>
<!DOCTYPE svg PUBLIC "-//W3C//DTD SVG 1.1//EN"
 "http://www.w3.org/Graphics/SVG/1.1/DTD/svg11.dtd">
<!-- Generated by graphviz version 2.38.0 (20140413.2041)
 -->
<!-- Title: %3 Pages: 1 -->
<svg width="576pt" height="366pt"
 viewBox="0.00 0.00 576.00 366.41" xmlns="http://www.w3.org/2000/svg" xmlns:xlink="http://www.w3.org/1999/xlink">
<g id="graph0" class="graph" transform="scale(0.587198 0.587198) rotate(0) translate(4 620)">
<title>%3</title>
<polygon fill="white" stroke="none" points="-4,4 -4,-620 976.93,-620 976.93,4 -4,4"/>
<!-- 10.1103/PhysRev.104.1223 -->
<g id="node1" class="node"><title>10.1103/PhysRev.104.1223</title>
<g id="a_node1"><a xlink:title="Theory of Transport Effects in Semiconductors: Thermoelectricity
(1956) Physical Review
P. J. Price
37 references &#45; 28 with doi
">
<ellipse fill="#00cdcd" stroke="#00cdcd" cx="216.684" cy="-310" rx="46.2923" ry="18"/>
<text text-anchor="middle" x="216.684" y="-306.3" font-family="Times,serif" font-size="14.00">Price1956</text>
</a>
</g>
</g>
<!-- 10.1103/PhysRev.118.1523 -->
<g id="node2" class="node"><title>10.1103/PhysRev.118.1523</title>
<g id="a_node2"><a xlink:title="Spin&#45;Lattice Relaxation of Shallow Donor States in Ge and Si through a Dire...
(1960) Physical Review
Hiroshi Hasegawa
29 references &#45; 23 with doi
">
<ellipse fill="#ffd700" stroke="#ffd700" cx="383.322" cy="-314" rx="64.189" ry="18"/>
<text text-anchor="middle" x="383.322" y="-310.3" font-family="Times,serif" font-size="14.00">Hasegawa1960</text>
</a>
</g>
</g>
<!-- 10.1103/PhysRev.104.1223&#45;&gt;10.1103/PhysRev.118.1523 -->
<g id="edge1" class="edge"><title>10.1103/PhysRev.104.1223&#45;&gt;10.1103/PhysRev.118.1523</title>
<path fill="none" stroke="black" stroke-width="1.4" d="M263.108,-311.104C277.318,-311.449 293.377,-311.839 308.999,-312.219"/>
<polygon fill="black" stroke="black" stroke-width="1.4" points="309.096,-315.722 319.178,-312.466 309.266,-308.724 309.096,-315.722"/>
</g>
<!-- 10.1103/PhysRev.124.1068 -->
<g id="node5" class="node"><title>10.1103/PhysRev.124.1068</title>
<g id="a_node5"><a xlink:title="Electron Spin Resonance Experiments on Donors in Silicon. III. Investigatio...
(1961) Physical Review
D. K. Wilson, G. Feher
29 references &#45; 19 with doi
">
<ellipse fill="#ffd700" stroke="#ffd700" cx="555.16" cy="-314" rx="53.8905" ry="18"/>
<text text-anchor="middle" x="555.16" y="-310.3" font-family="Times,serif" font-size="14.00">Wilson1961</text>
</a>
</g>
</g>
<!-- 10.1103/PhysRev.118.1523&#45;&gt;10.1103/PhysRev.124.1068 -->
<g id="edge2" class="edge"><title>10.1103/PhysRev.118.1523&#45;&gt;10.1103/PhysRev.124.1068</title>
<path fill="none" stroke="black" stroke-width="1.4" d="M448.047,-314C462.135,-314 477.054,-314 491.115,-314"/>
<polygon fill="black" stroke="black" stroke-width="1.4" points="491.177,-317.5 501.177,-314 491.177,-310.5 491.177,-317.5"/>
</g>
<!-- 10.1103/PhysRevA.62.012306 -->
<g id="node3" class="node"><title>10.1103/PhysRevA.62.012306</title>
<g id="a_node3"><a xlink:title="Electron&#45;spin&#45;resonance transistors for quantum computing in silicon&#45;german...
(2000) Physical Review A
Rutger Vrijen, Eli Yablonovitch, Kang Wang, Hong Wen Jiang, Alex Balandin, Vwani Roychowdhury, Tal Mor, David DiVincenzo
35 references &#45; 31 with doi
">
<ellipse fill="red" stroke="red" cx="922.234" cy="-136" rx="50.8918" ry="18"/>
<text text-anchor="middle" x="922.234" y="-132.3" font-family="Times,serif" font-size="14.00">Vrijen2000</text>
</a>
</g>
</g>
<!-- 10.1103/PhysRev.134.A265 -->
<g id="node4" class="node"><title>10.1103/PhysRev.134.A265</title>
<g id="a_node4"><a xlink:title="Electron Spin Resonance Experiments on Shallow Donors in Germanium
(1964) Physical Review
D. K. Wilson
46 references &#45; 38 with doi
">
<ellipse fill="#ffd700" stroke="#ffd700" cx="749.096" cy="-314" rx="53.8905" ry="18"/>
<text text-anchor="middle" x="749.096" y="-310.3" font-family="Times,serif" font-size="14.00">Wilson1964</text>
</a>
</g>
</g>
<!-- 10.1103/PhysRev.134.A265&#45;&gt;10.1103/PhysRevA.62.012306 -->
<g id="edge3" class="edge"><title>10.1103/PhysRev.134.A265&#45;&gt;10.1103/PhysRevA.62.012306</title>
<path fill="none" stroke="black" stroke-width="1.4" d="M770.528,-297.275C788.326,-282.373 814.504,-259.637 835.539,-238 859.592,-213.258 884.715,-182.711 901.492,-161.528"/>
<polygon fill="black" stroke="black" stroke-width="1.4" points="904.278,-163.647 907.71,-153.624 898.776,-159.32 904.278,-163.647"/>
</g>
<!-- 10.1103/PhysRev.124.1068&#45;&gt;10.1103/PhysRev.134.A265 -->
<g id="edge4" class="edge"><title>10.1103/PhysRev.124.1068&#45;&gt;10.1103/PhysRev.134.A265</title>
<path fill="none" stroke="black" stroke-width="1.4" d="M609.116,-314C632.515,-314 660.215,-314 684.704,-314"/>
<polygon fill="black" stroke="black" stroke-width="1.4" points="684.981,-317.5 694.981,-314 684.981,-310.5 684.981,-317.5"/>
</g>
<!-- 10.1063/1.1721449 -->
<g id="node6" class="node"><title>10.1063/1.1721449</title>
<g id="a_node6"><a xlink:title="Measurement of Elastic Constants at Low Temperatures by Means of Ultrasonic...
(1953) Journal of Applied Physics
H. J. McSkimin
12 references &#45; 10 with doi
">
<ellipse fill="#00cdcd" stroke="#00cdcd" cx="216.684" cy="-262" rx="66.0889" ry="18"/>
<text text-anchor="middle" x="216.684" y="-258.3" font-family="Times,serif" font-size="14.00">McSkimin1953</text>
</a>
</g>
</g>
<!-- 10.1063/1.1721449&#45;&gt;10.1103/PhysRev.118.1523 -->
<g id="edge5" class="edge"><title>10.1063/1.1721449&#45;&gt;10.1103/PhysRev.118.1523</title>
<path fill="none" stroke="black" stroke-width="1.4" d="M260.511,-275.527C281.841,-282.263 307.806,-290.465 330.276,-297.561"/>
<polygon fill="black" stroke="black" stroke-width="1.4" points="329.405,-300.957 339.995,-300.631 331.513,-294.282 329.405,-300.957"/>
</g>
<!-- 10.1103/PhysRevLett.3.25 -->
<g id="node7" class="node"><title>10.1103/PhysRevLett.3.25</title>
<g id="a_node7"><a xlink:title="Electron Spin Resonance Experiments on Shallow Donors in Germanium
(1959) Physical Review Letters
G. Feher, D. K. Wilson, E. A. Gere
11 references &#45; 8 with doi
">
<ellipse fill="#00cdcd" stroke="#00cdcd" cx="216.684" cy="-406" rx="48.1917" ry="18"/>
<text text-anchor="middle" x="216.684" y="-402.3" font-family="Times,serif" font-size="14.00">Feher1959</text>
</a>
</g>
</g>
<!-- 10.1103/PhysRevLett.3.25&#45;&gt;10.1103/PhysRev.118.1523 -->
<g id="edge7" class="edge"><title>10.1103/PhysRevLett.3.25&#45;&gt;10.1103/PhysRev.118.1523</title>
<path fill="none" stroke="black" stroke-width="1.4" d="M253.951,-394.48C263.591,-390.933 273.855,-386.706 282.978,-382 307.734,-369.23 333.64,-351.326 352.788,-337.094"/>
<polygon fill="black" stroke="black" stroke-width="1.4" points="354.937,-339.858 360.819,-331.046 350.726,-334.266 354.937,-339.858"/>
</g>
<!-- 10.1103/PhysRev.118.1534 -->
<g id="node8" class="node"><title>10.1103/PhysRev.118.1534</title>
<g id="a_node8"><a xlink:title="gFactor and Donor Spin&#45;Lattice Relaxation for Electrons in Germanium and Si...
(1960) Physical Review
Laura M. Roth
20 references &#45; 17 with doi
">
<ellipse fill="#ffd700" stroke="#ffd700" cx="555.16" cy="-367" rx="45.4919" ry="18"/>
<text text-anchor="middle" x="555.16" y="-363.3" font-family="Times,serif" font-size="14.00">Roth1960</text>
</a>
</g>
</g>
<!-- 10.1103/PhysRevLett.3.25&#45;&gt;10.1103/PhysRev.118.1534 -->
<g id="edge6" class="edge"><title>10.1103/PhysRevLett.3.25&#45;&gt;10.1103/PhysRev.118.1534</title>
<path fill="none" stroke="black" stroke-width="1.4" d="M262.714,-400.781C324.502,-393.619 435.372,-380.768 501.11,-373.149"/>
<polygon fill="black" stroke="black" stroke-width="1.4" points="501.728,-376.601 511.258,-371.973 500.922,-369.647 501.728,-376.601"/>
</g>
<!-- 10.1103/PhysRev.118.1534&#45;&gt;10.1103/PhysRev.134.A265 -->
<g id="edge8" class="edge"><title>10.1103/PhysRev.118.1534&#45;&gt;10.1103/PhysRev.134.A265</title>
<path fill="none" stroke="black" stroke-width="1.4" d="M593.168,-356.781C622.685,-348.63 664.353,-337.124 697.043,-328.097"/>
<polygon fill="black" stroke="black" stroke-width="1.4" points="698.169,-331.418 706.877,-325.382 696.306,-324.67 698.169,-331.418"/>
</g>
<!-- 10.1103/PhysRevA.52.3457 -->
<g id="node9" class="node"><title>10.1103/PhysRevA.52.3457</title>
<g id="a_node9"><a xlink:title="Elementary gates for quantum computation
(1995) Physical Review A
Adriano Barenco, Charles H. Bennett, Richard Cleve, David P. DiVincenzo, Norman Margolus, Peter Shor, Tycho Sleator, John A. Smolin, Harald Weinfurter
25 references &#45; 21 with doi
">
<ellipse fill="#00cdcd" stroke="#00cdcd" cx="216.684" cy="-66" rx="57.6901" ry="18"/>
<text text-anchor="middle" x="216.684" y="-62.3" font-family="Times,serif" font-size="14.00">Barenco1995</text>
</a>
</g>
</g>
<!-- 10.1103/PhysRevLett.75.4714 -->
<g id="node12" class="node"><title>10.1103/PhysRevLett.75.4714</title>
<g id="a_node12"><a xlink:title="Demonstration of a Fundamental Quantum Logic Gate
(1995) Physical Review Letters
C. Monroe, D. M. Meekhof, B. E. King, W. M. Itano, D. J. Wineland
28 references &#45; 22 with doi
">
<ellipse fill="#ffd700" stroke="#ffd700" cx="383.322" cy="-137" rx="56.59" ry="18"/>
<text text-anchor="middle" x="383.322" y="-133.3" font-family="Times,serif" font-size="14.00">Monroe1995</text>
</a>
</g>
</g>
<!-- 10.1103/PhysRevA.52.3457&#45;&gt;10.1103/PhysRevLett.75.4714 -->
<g id="edge10" class="edge"><title>10.1103/PhysRevA.52.3457&#45;&gt;10.1103/PhysRevLett.75.4714</title>
<path fill="none" stroke="black" stroke-width="1.4" d="M257.279,-78.9919C265.899,-82.2494 274.863,-85.9756 282.978,-90 299.988,-98.4356 302.01,-104.48 318.978,-113 323.904,-115.474 329.151,-117.846 334.434,-120.071"/>
<polygon fill="black" stroke="black" stroke-width="1.4" points="333.341,-123.405 343.924,-123.908 335.965,-116.915 333.341,-123.405"/>
</g>
<!-- 10.1103/PhysRevA.57.120 -->
<g id="node13" class="node"><title>10.1103/PhysRevA.57.120</title>
<g id="a_node13"><a xlink:title="Quantum computation with quantum dots
(1998) Physical Review A
Daniel Loss, David P. DiVincenzo
28 references &#45; 22 with doi
">
<ellipse fill="#ffd700" stroke="#ffd700" cx="555.16" cy="-64" rx="44.6926" ry="18"/>
<text text-anchor="middle" x="555.16" y="-60.3" font-family="Times,serif" font-size="14.00">Loss1998</text>
</a>
</g>
</g>
<!-- 10.1103/PhysRevA.52.3457&#45;&gt;10.1103/PhysRevA.57.120 -->
<g id="edge9" class="edge"><title>10.1103/PhysRevA.52.3457&#45;&gt;10.1103/PhysRevA.57.120</title>
<path fill="none" stroke="black" stroke-width="1.4" d="M274.737,-65.3806C289.172,-65.2393 304.645,-65.1012 318.978,-65 380.981,-64.5621 452.18,-64.2919 499.847,-64.1444"/>
<polygon fill="black" stroke="black" stroke-width="1.4" points="499.958,-67.6442 509.947,-64.114 499.937,-60.6443 499.958,-67.6442"/>
</g>
<!-- 10.1126/science.275.5298.350 -->
<g id="node10" class="node"><title>10.1126/science.275.5298.350</title>
<g id="a_node10"><a xlink:title="Bulk Spin&#45;Resonance Quantum Computation
(1997) Science
N. A. Gershenfeld, I. L. Chuang
26 references &#45; 22 with doi
">
<ellipse fill="#ffd700" stroke="#ffd700" cx="555.16" cy="-160" rx="71.4873" ry="18"/>
<text text-anchor="middle" x="555.16" y="-156.3" font-family="Times,serif" font-size="14.00">Gershenfeld1997</text>
</a>
</g>
</g>
<!-- 10.1103/PhysRevA.57.R1 -->
<g id="node11" class="node"><title>10.1103/PhysRevA.57.R1</title>
<g id="a_node11"><a xlink:title="Qubit&#45;qubit interaction in quantum computers
(1998) Physical Review A
Julio Gea&#45;Banacloche
10 references &#45; 10 with doi
">
<ellipse fill="#ffd700" stroke="#ffd700" cx="749.096" cy="-160" rx="86.3847" ry="18"/>
<text text-anchor="middle" x="749.096" y="-156.3" font-family="Times,serif" font-size="14.00">Gea&#45;Banacloche1998</text>
</a>
</g>
</g>
<!-- 10.1126/science.275.5298.350&#45;&gt;10.1103/PhysRevA.57.R1 -->
<g id="edge11" class="edge"><title>10.1126/science.275.5298.350&#45;&gt;10.1103/PhysRevA.57.R1</title>
<path fill="none" stroke="black" stroke-width="1.4" d="M626.813,-160C635.187,-160 643.838,-160 652.485,-160"/>
<polygon fill="black" stroke="black" stroke-width="1.4" points="652.617,-163.5 662.617,-160 652.617,-156.5 652.617,-163.5"/>
</g>
<!-- 10.1103/PhysRevA.57.R1&#45;&gt;10.1103/PhysRevA.62.012306 -->
<g id="edge12" class="edge"><title>10.1103/PhysRevA.57.R1&#45;&gt;10.1103/PhysRevA.62.012306</title>
<path fill="none" stroke="black" stroke-width="1.4" d="M821.187,-150.03C835.746,-147.989 850.879,-145.866 864.837,-143.909"/>
<polygon fill="black" stroke="black" stroke-width="1.4" points="865.351,-147.371 874.767,-142.516 864.378,-140.439 865.351,-147.371"/>
</g>
<!-- 10.1103/PhysRevLett.75.4714&#45;&gt;10.1126/science.275.5298.350 -->
<g id="edge13" class="edge"><title>10.1103/PhysRevLett.75.4714&#45;&gt;10.1126/science.275.5298.350</title>
<path fill="none" stroke="black" stroke-width="1.4" d="M435.74,-143.963C450.236,-145.926 466.284,-148.099 481.763,-150.196"/>
<polygon fill="black" stroke="black" stroke-width="1.4" points="481.452,-153.686 491.832,-151.559 482.392,-146.749 481.452,-153.686"/>
</g>
<!-- 10.1103/PhysRevA.57.120&#45;&gt;10.1103/PhysRevA.62.012306 -->
<g id="edge14" class="edge"><title>10.1103/PhysRevA.57.120&#45;&gt;10.1103/PhysRevA.62.012306</title>
<path fill="none" stroke="black" stroke-width="1.4" d="M599.833,-62.1311C655.75,-60.9981 755.034,-63.2613 835.539,-88 854.751,-93.904 874.438,-104.547 890.09,-114.313"/>
<polygon fill="black" stroke="black" stroke-width="1.4" points="888.502,-117.453 898.806,-119.919 892.289,-111.566 888.502,-117.453"/>
</g>
<!-- 10.1103/PhysRevLett.74.4087 -->
<g id="node14" class="node"><title>10.1103/PhysRevLett.74.4087</title>
<g id="a_node14"><a xlink:title="Realizable Universal Quantum Logic Gates
(1995) Physical Review Letters
Tycho Sleator, Harald Weinfurter
26 references &#45; 19 with doi
">
<ellipse fill="#00cdcd" stroke="#00cdcd" cx="57.1949" cy="-18" rx="53.0913" ry="18"/>
<text text-anchor="middle" x="57.1949" y="-14.3" font-family="Times,serif" font-size="14.00">Sleator1995</text>
</a>
</g>
</g>
<!-- 10.1103/PhysRevLett.74.4091 -->
<g id="node33" class="node"><title>10.1103/PhysRevLett.74.4091</title>
<g id="a_node33"><a xlink:title="Quantum Computations with Cold Trapped Ions
(1995) Physical Review Letters
J. I. Cirac, P. Zoller
13 references &#45; 12 with doi
">
<ellipse fill="#ffd700" stroke="#ffd700" cx="216.684" cy="-18" rx="47.3916" ry="18"/>
<text text-anchor="middle" x="216.684" y="-14.3" font-family="Times,serif" font-size="14.00">Cirac1995</text>
</a>
</g>
</g>
<!-- 10.1103/PhysRevLett.74.4087&#45;&gt;10.1103/PhysRevLett.74.4091 -->
<g id="edge15" class="edge"><title>10.1103/PhysRevLett.74.4087&#45;&gt;10.1103/PhysRevLett.74.4091</title>
<path fill="none" stroke="black" stroke-width="1.4" d="M110.636,-18C126.124,-18 143.146,-18 158.894,-18"/>
<polygon fill="black" stroke="black" stroke-width="1.4" points="159.03,-21.5001 169.03,-18 159.03,-14.5001 159.03,-21.5001"/>
</g>
<!-- 10.1103/PhysRevLett.75.4710 -->
<g id="node15" class="node"><title>10.1103/PhysRevLett.75.4710</title>
<g id="a_node15"><a xlink:title="Measurement of Conditional Phase Shifts for Quantum Logic
(1995) Physical Review Letters
Q. A. Turchette, C. J. Hood, W. Lange, H. Mabuchi, H. J. Kimble
16 references &#45; 12 with doi
">
<ellipse fill="#ffd700" stroke="#ffd700" cx="383.322" cy="-89" rx="61.99" ry="18"/>
<text text-anchor="middle" x="383.322" y="-85.3" font-family="Times,serif" font-size="14.00">Turchette1995</text>
</a>
</g>
</g>
<!-- 10.1103/PhysRevLett.75.4710&#45;&gt;10.1126/science.275.5298.350 -->
<g id="edge17" class="edge"><title>10.1103/PhysRevLett.75.4710&#45;&gt;10.1126/science.275.5298.350</title>
<path fill="none" stroke="black" stroke-width="1.4" d="M424.062,-102.616C432.01,-105.739 440.205,-109.253 447.667,-113 464.634,-121.52 466.556,-127.77 483.667,-136 488.545,-138.347 493.714,-140.568 498.948,-142.642"/>
<polygon fill="black" stroke="black" stroke-width="1.4" points="497.797,-145.949 508.389,-146.211 500.273,-139.401 497.797,-145.949"/>
</g>
<!-- 10.1103/PhysRevLett.75.4710&#45;&gt;10.1103/PhysRevA.57.120 -->
<g id="edge16" class="edge"><title>10.1103/PhysRevLett.75.4710&#45;&gt;10.1103/PhysRevA.57.120</title>
<path fill="none" stroke="black" stroke-width="1.4" d="M438.995,-80.9522C459.485,-77.9361 482.678,-74.5222 502.852,-71.5525"/>
<polygon fill="black" stroke="black" stroke-width="1.4" points="503.408,-75.0085 512.791,-70.0895 502.388,-68.0832 503.408,-75.0085"/>
</g>
<!-- 10.1103/PhysRev.109.221 -->
<g id="node16" class="node"><title>10.1103/PhysRev.109.221</title>
<g id="a_node16"><a xlink:title="Spontaneous Emission of Radiation from an Electron Spin System
(1958) Physical Review
G. Feher, J. P. Gordon, E. Buehler, E. A. Gere, C. D. Thurmond
3 references &#45; 1 with doi
">
<ellipse fill="#00cdcd" stroke="#00cdcd" cx="555.16" cy="-112" rx="48.1917" ry="18"/>
<text text-anchor="middle" x="555.16" y="-108.3" font-family="Times,serif" font-size="14.00">Feher1958</text>
</a>
</g>
</g>
<!-- 10.1103/PhysRevLett.1.368 -->
<g id="node17" class="node"><title>10.1103/PhysRevLett.1.368</title>
<g id="a_node17"><a xlink:title="Microwave Spin Echoes from Donor Electrons in Silicon
(1958) Physical Review Letters
J. P. Gordon, K. D. Bowers
7 references &#45; 7 with doi
">
<ellipse fill="#ffd700" stroke="#ffd700" cx="749.096" cy="-112" rx="55.4913" ry="18"/>
<text text-anchor="middle" x="749.096" y="-108.3" font-family="Times,serif" font-size="14.00">Gordon1958</text>
</a>
</g>
</g>
<!-- 10.1103/PhysRev.109.221&#45;&gt;10.1103/PhysRevLett.1.368 -->
<g id="edge18" class="edge"><title>10.1103/PhysRev.109.221&#45;&gt;10.1103/PhysRevLett.1.368</title>
<path fill="none" stroke="black" stroke-width="1.4" d="M603.605,-112C627.714,-112 657.366,-112 683.523,-112"/>
<polygon fill="black" stroke="black" stroke-width="1.4" points="683.733,-115.5 693.733,-112 683.733,-108.5 683.733,-115.5"/>
</g>
<!-- 10.1103/PhysRevLett.1.368&#45;&gt;10.1103/PhysRevA.62.012306 -->
<g id="edge19" class="edge"><title>10.1103/PhysRevLett.1.368&#45;&gt;10.1103/PhysRevA.62.012306</title>
<path fill="none" stroke="black" stroke-width="1.4" d="M800.057,-119.006C820.32,-121.848 843.827,-125.145 864.713,-128.074"/>
<polygon fill="black" stroke="black" stroke-width="1.4" points="864.341,-131.556 874.73,-129.478 865.313,-124.623 864.341,-131.556"/>
</g>
<!-- 10.1098/rspa.1992.0167 -->
<g id="node18" class="node"><title>10.1098/rspa.1992.0167</title>
<g id="a_node18"><a xlink:title="Rapid Solution of Problems by Quantum Computation
(1992) Proceedings of the Royal Society A: Mathematical, Physical and Engineering Sciences
D. Deutsch, R. Jozsa
0 references &#45; 0 with doi
">
<ellipse fill="#00cdcd" stroke="#00cdcd" cx="57.1949" cy="-188" rx="57.3905" ry="18"/>
<text text-anchor="middle" x="57.1949" y="-184.3" font-family="Times,serif" font-size="14.00">Deutsch1992</text>
</a>
</g>
</g>
<!-- 10.1103/PhysRevA.51.992 -->
<g id="node22" class="node"><title>10.1103/PhysRevA.51.992</title>
<g id="a_node22"><a xlink:title="Maintaining coherence in quantum computers
(1995) Physical Review A
W. G. Unruh
6 references &#45; 5 with doi
">
<ellipse fill="#ffd700" stroke="#ffd700" cx="216.684" cy="-188" rx="50.8918" ry="18"/>
<text text-anchor="middle" x="216.684" y="-184.3" font-family="Times,serif" font-size="14.00">Unruh1995</text>
</a>
</g>
</g>
<!-- 10.1098/rspa.1992.0167&#45;&gt;10.1103/PhysRevA.51.992 -->
<g id="edge20" class="edge"><title>10.1098/rspa.1992.0167&#45;&gt;10.1103/PhysRevA.51.992</title>
<path fill="none" stroke="black" stroke-width="1.4" d="M114.607,-188C127.971,-188 142.269,-188 155.782,-188"/>
<polygon fill="black" stroke="black" stroke-width="1.4" points="155.933,-191.5 165.933,-188 155.933,-184.5 155.933,-191.5"/>
</g>
<!-- 10.1103/PhysRev.97.1721 -->
<g id="node19" class="node"><title>10.1103/PhysRev.97.1721</title>
<g id="a_node19"><a xlink:title="Theory of Donor Levels in Silicon
(1955) Physical Review
W. Kohn, J. M. Luttinger
3 references &#45; 3 with doi
">
<ellipse fill="#00cdcd" stroke="#00cdcd" cx="57.1949" cy="-598" rx="48.1917" ry="18"/>
<text text-anchor="middle" x="57.1949" y="-594.3" font-family="Times,serif" font-size="14.00">Kohn1955</text>
</a>
</g>
</g>
<!-- 10.1103/PhysRev.114.1219 -->
<g id="node27" class="node"><title>10.1103/PhysRev.114.1219</title>
<g id="a_node27"><a xlink:title="Electron Spin Resonance Experiments on Donors in Silicon. I. Electronic Str...
(1959) Physical Review
G. Feher
59 references &#45; 42 with doi
">
<ellipse fill="#ffd700" stroke="#ffd700" cx="216.684" cy="-598" rx="48.1917" ry="18"/>
<text text-anchor="middle" x="216.684" y="-594.3" font-family="Times,serif" font-size="14.00">Feher1959</text>
</a>
</g>
</g>
<!-- 10.1103/PhysRev.97.1721&#45;&gt;10.1103/PhysRev.114.1219 -->
<g id="edge21" class="edge"><title>10.1103/PhysRev.97.1721&#45;&gt;10.1103/PhysRev.114.1219</title>
<path fill="none" stroke="black" stroke-width="1.4" d="M105.447,-598C122.11,-598 141.025,-598 158.424,-598"/>
<polygon fill="black" stroke="black" stroke-width="1.4" points="158.465,-601.5 168.465,-598 158.465,-594.5 158.465,-601.5"/>
</g>
<!-- 10.1103/PhysRev.107.491 -->
<g id="node20" class="node"><title>10.1103/PhysRev.107.491</title>
<g id="a_node20"><a xlink:title="Donor Electron Spin Relaxation in Silicon
(1957) Physical Review
Elihu Abrahams
14 references &#45; 13 with doi
">
<ellipse fill="#00cdcd" stroke="#00cdcd" cx="216.684" cy="-550" rx="64.9885" ry="18"/>
<text text-anchor="middle" x="216.684" y="-546.3" font-family="Times,serif" font-size="14.00">Abrahams1957</text>
</a>
</g>
</g>
<!-- 10.1103/PhysRev.114.1245 -->
<g id="node31" class="node"><title>10.1103/PhysRev.114.1245</title>
<g id="a_node31"><a xlink:title="Electron Spin Resonance Experiments on Donors in Silicon. II. Electron Spin...
(1959) Physical Review
G. Feher, E. A. Gere
44 references &#45; 31 with doi
">
<ellipse fill="#ffd700" stroke="#ffd700" cx="383.322" cy="-526" rx="48.1917" ry="18"/>
<text text-anchor="middle" x="383.322" y="-522.3" font-family="Times,serif" font-size="14.00">Feher1959</text>
</a>
</g>
</g>
<!-- 10.1103/PhysRev.107.491&#45;&gt;10.1103/PhysRev.114.1245 -->
<g id="edge22" class="edge"><title>10.1103/PhysRev.107.491&#45;&gt;10.1103/PhysRev.114.1245</title>
<path fill="none" stroke="black" stroke-width="1.4" d="M274.804,-541.673C292.033,-539.162 310.89,-536.413 327.935,-533.928"/>
<polygon fill="black" stroke="black" stroke-width="1.4" points="328.893,-537.326 338.283,-532.42 327.883,-530.399 328.893,-537.326"/>
</g>
<!-- 10.1103/PhysRev.101.944 -->
<g id="node21" class="node"><title>10.1103/PhysRev.101.944</title>
<g id="a_node21"><a xlink:title="Transport and Deformation&#45;Potential Theory for Many&#45;Valley Semiconductors w...
(1956) Physical Review
Conyers Herring, Erich Vogt
25 references &#45; 25 with doi
">
<ellipse fill="#00cdcd" stroke="#00cdcd" cx="216.684" cy="-358" rx="55.7903" ry="18"/>
<text text-anchor="middle" x="216.684" y="-354.3" font-family="Times,serif" font-size="14.00">Herring1956</text>
</a>
</g>
</g>
<!-- 10.1103/PhysRev.101.944&#45;&gt;10.1103/PhysRev.118.1523 -->
<g id="edge24" class="edge"><title>10.1103/PhysRev.101.944&#45;&gt;10.1103/PhysRev.118.1523</title>
<path fill="none" stroke="black" stroke-width="1.4" d="M260.511,-346.554C280.671,-341.167 304.972,-334.672 326.549,-328.906"/>
<polygon fill="black" stroke="black" stroke-width="1.4" points="327.489,-332.277 336.246,-326.314 325.681,-325.515 327.489,-332.277"/>
</g>
<!-- 10.1103/PhysRev.101.944&#45;&gt;10.1103/PhysRev.118.1534 -->
<g id="edge23" class="edge"><title>10.1103/PhysRev.101.944&#45;&gt;10.1103/PhysRev.118.1534</title>
<path fill="none" stroke="black" stroke-width="1.4" d="M272.494,-359.466C335.115,-361.141 436.983,-363.866 499.53,-365.539"/>
<polygon fill="black" stroke="black" stroke-width="1.4" points="499.507,-369.039 509.597,-365.808 499.694,-362.042 499.507,-369.039"/>
</g>
<!-- 10.1103/PhysRevA.51.992&#45;&gt;10.1103/PhysRevLett.75.4714 -->
<g id="edge25" class="edge"><title>10.1103/PhysRevA.51.992&#45;&gt;10.1103/PhysRevLett.75.4714</title>
<path fill="none" stroke="black" stroke-width="1.4" d="M255.455,-176.3C278.335,-169.212 307.786,-160.089 332.552,-152.417"/>
<polygon fill="black" stroke="black" stroke-width="1.4" points="333.624,-155.75 342.14,-149.447 331.552,-149.063 333.624,-155.75"/>
</g>
<!-- 10.1103/PhysRevA.52.R2493 -->
<g id="node23" class="node"><title>10.1103/PhysRevA.52.R2493</title>
<g id="a_node23"><a xlink:title="Scheme for reducing decoherence in quantum computer memory
(1995) Physical Review A
Peter W. Shor
12 references &#45; 7 with doi
">
<ellipse fill="#ffd700" stroke="#ffd700" cx="383.322" cy="-185" rx="44.6926" ry="18"/>
<text text-anchor="middle" x="383.322" y="-181.3" font-family="Times,serif" font-size="14.00">Shor1995</text>
</a>
</g>
</g>
<!-- 10.1103/PhysRevA.51.992&#45;&gt;10.1103/PhysRevA.52.R2493 -->
<g id="edge26" class="edge"><title>10.1103/PhysRevA.51.992&#45;&gt;10.1103/PhysRevA.52.R2493</title>
<path fill="none" stroke="black" stroke-width="1.4" d="M267.528,-187.092C286.79,-186.741 308.877,-186.338 328.5,-185.981"/>
<polygon fill="black" stroke="black" stroke-width="1.4" points="328.574,-189.48 338.509,-185.798 328.447,-182.481 328.574,-189.48"/>
</g>
<!-- 10.1103/PhysRevA.52.R2493&#45;&gt;10.1126/science.275.5298.350 -->
<g id="edge27" class="edge"><title>10.1103/PhysRevA.52.R2493&#45;&gt;10.1126/science.275.5298.350</title>
<path fill="none" stroke="black" stroke-width="1.4" d="M425.869,-178.884C443.096,-176.349 463.579,-173.334 483.063,-170.465"/>
<polygon fill="black" stroke="black" stroke-width="1.4" points="483.756,-173.901 493.139,-168.982 482.736,-166.976 483.756,-173.901"/>
</g>
<!-- 10.1103/PhysRevLett.74.4083 -->
<g id="node24" class="node"><title>10.1103/PhysRevLett.74.4083</title>
<g id="a_node24"><a xlink:title="Conditional Quantum Dynamics and Logic Gates
(1995) Physical Review Letters
Adriano Barenco, David Deutsch, Artur Ekert, Richard Jozsa
16 references &#45; 13 with doi
">
<ellipse fill="#ffd700" stroke="#ffd700" cx="216.684" cy="-114" rx="57.6901" ry="18"/>
<text text-anchor="middle" x="216.684" y="-110.3" font-family="Times,serif" font-size="14.00">Barenco1995</text>
</a>
</g>
</g>
<!-- 10.1103/PhysRevLett.74.4083&#45;&gt;10.1103/PhysRevLett.75.4714 -->
<g id="edge28" class="edge"><title>10.1103/PhysRevLett.74.4083&#45;&gt;10.1103/PhysRevLett.75.4714</title>
<path fill="none" stroke="black" stroke-width="1.4" d="M269.777,-121.277C286.004,-123.544 304.051,-126.065 320.856,-128.413"/>
<polygon fill="black" stroke="black" stroke-width="1.4" points="320.744,-131.931 331.132,-129.849 321.713,-124.999 320.744,-131.931"/>
</g>
<!-- 10.1103/PhysRevLett.74.4083&#45;&gt;10.1103/PhysRevLett.75.4710 -->
<g id="edge29" class="edge"><title>10.1103/PhysRevLett.74.4083&#45;&gt;10.1103/PhysRevLett.75.4710</title>
<path fill="none" stroke="black" stroke-width="1.4" d="M268.874,-106.227C284.508,-103.853 301.899,-101.212 318.274,-98.7256"/>
<polygon fill="black" stroke="black" stroke-width="1.4" points="318.953,-102.163 328.314,-97.2011 317.902,-95.2421 318.953,-102.163"/>
</g>
<!-- 10.1103/PhysRevLett.1.275 -->
<g id="node25" class="node"><title>10.1103/PhysRevLett.1.275</title>
<g id="a_node25"><a xlink:title="Electron Spin&#45;Lattice Relaxation in Phosphorus&#45;Doped Silicon
(1958) Physical Review Letters
H. Honig, E. Stupp
6 references &#45; 3 with doi
">
<ellipse fill="#00cdcd" stroke="#00cdcd" cx="216.684" cy="-502" rx="50.0912" ry="18"/>
<text text-anchor="middle" x="216.684" y="-498.3" font-family="Times,serif" font-size="14.00">Honig1958</text>
</a>
</g>
</g>
<!-- 10.1103/PhysRevLett.1.275&#45;&gt;10.1103/PhysRev.114.1245 -->
<g id="edge30" class="edge"><title>10.1103/PhysRevLett.1.275&#45;&gt;10.1103/PhysRev.114.1245</title>
<path fill="none" stroke="black" stroke-width="1.4" d="M263.545,-508.685C283.578,-511.606 307.221,-515.052 328.117,-518.098"/>
<polygon fill="black" stroke="black" stroke-width="1.4" points="327.726,-521.578 338.126,-519.557 328.736,-514.651 327.726,-521.578"/>
</g>
<!-- 10.1103/PhysRev.106.489 -->
<g id="node26" class="node"><title>10.1103/PhysRev.106.489</title>
<g id="a_node26"><a xlink:title="Nuclear Polarization and Impurity&#45;State Spin Relaxation Processes in Silico...
(1957) Physical Review
David Pines, John Bardeen, Charles P. Slichter
17 references &#45; 15 with doi
">
<ellipse fill="#00cdcd" stroke="#00cdcd" cx="216.684" cy="-454" rx="47.3916" ry="18"/>
<text text-anchor="middle" x="216.684" y="-450.3" font-family="Times,serif" font-size="14.00">Pines1957</text>
</a>
</g>
</g>
<!-- 10.1103/PhysRev.106.489&#45;&gt;10.1103/PhysRev.114.1245 -->
<g id="edge31" class="edge"><title>10.1103/PhysRev.106.489&#45;&gt;10.1103/PhysRev.114.1245</title>
<path fill="none" stroke="black" stroke-width="1.4" d="M252.157,-465.956C262.176,-469.623 273.083,-473.803 282.978,-478 303.947,-486.894 326.87,-497.882 345.408,-507.1"/>
<polygon fill="black" stroke="black" stroke-width="1.4" points="343.889,-510.253 354.397,-511.601 347.023,-503.994 343.889,-510.253"/>
</g>
<!-- 10.1103/PhysRev.114.1219&#45;&gt;10.1103/PhysRev.114.1245 -->
<g id="edge32" class="edge"><title>10.1103/PhysRev.114.1219&#45;&gt;10.1103/PhysRev.114.1245</title>
<path fill="none" stroke="black" stroke-width="1.4" d="M244.6,-583.278C256.471,-578.536 270.525,-573.282 282.978,-568 301.428,-560.174 321.39,-550.728 338.548,-542.702"/>
<polygon fill="black" stroke="black" stroke-width="1.4" points="340.177,-545.804 347.763,-538.409 337.221,-539.459 340.177,-545.804"/>
</g>
<!-- 10.1103/PhysRev.98.915 -->
<g id="node28" class="node"><title>10.1103/PhysRev.98.915</title>
<g id="a_node28"><a xlink:title="Theory of Donor States in Silicon
(1955) Physical Review
W. Kohn, J. M. Luttinger
9 references &#45; 7 with doi
">
<ellipse fill="#00cdcd" stroke="#00cdcd" cx="57.1949" cy="-393" rx="48.1917" ry="18"/>
<text text-anchor="middle" x="57.1949" y="-389.3" font-family="Times,serif" font-size="14.00">Kohn1955</text>
</a>
</g>
</g>
<!-- 10.1103/PhysRev.98.915&#45;&gt;10.1103/PhysRev.114.1219 -->
<g id="edge34" class="edge"><title>10.1103/PhysRev.98.915&#45;&gt;10.1103/PhysRev.114.1219</title>
<path fill="none" stroke="black" stroke-width="1.4" d="M62.6442,-411.157C72.3881,-447.225 98.9615,-528.349 150.39,-574 155.072,-578.157 160.536,-581.614 166.273,-584.485"/>
<polygon fill="black" stroke="black" stroke-width="1.4" points="164.877,-587.695 175.439,-588.53 167.703,-581.29 164.877,-587.695"/>
</g>
<!-- 10.1103/PhysRevB.24.4714 -->
<g id="node29" class="node"><title>10.1103/PhysRevB.24.4714</title>
<g id="a_node29"><a xlink:title="Hydrogenic impurity states in a quantum well: A simple model
(1981) Physical Review B
G. Bastard
13 references &#45; 6 with doi
">
<ellipse fill="#ffd700" stroke="#ffd700" cx="749.096" cy="-214" rx="55.4913" ry="18"/>
<text text-anchor="middle" x="749.096" y="-210.3" font-family="Times,serif" font-size="14.00">Bastard1981</text>
</a>
</g>
</g>
<!-- 10.1103/PhysRev.98.915&#45;&gt;10.1103/PhysRevB.24.4714 -->
<g id="edge33" class="edge"><title>10.1103/PhysRev.98.915&#45;&gt;10.1103/PhysRevB.24.4714</title>
<path fill="none" stroke="black" stroke-width="1.4" d="M62.7646,-375.077C72.4352,-341.317 98.4719,-268.922 150.39,-238 195.264,-211.273 538.71,-211.731 683.765,-213.153"/>
<polygon fill="black" stroke="black" stroke-width="1.4" points="683.824,-216.654 693.859,-213.257 683.896,-209.654 683.824,-216.654"/>
</g>
<!-- 10.1103/PhysRevB.24.4714&#45;&gt;10.1103/PhysRevA.62.012306 -->
<g id="edge35" class="edge"><title>10.1103/PhysRevB.24.4714&#45;&gt;10.1103/PhysRevA.62.012306</title>
<path fill="none" stroke="black" stroke-width="1.4" d="M789.788,-201.657C804.391,-196.702 820.923,-190.599 835.539,-184 853.078,-176.081 871.806,-165.816 887.268,-156.812"/>
<polygon fill="black" stroke="black" stroke-width="1.4" points="889.125,-159.78 895.96,-151.684 885.568,-153.751 889.125,-159.78"/>
</g>
<!-- 10.1098/rspa.1989.0099 -->
<g id="node30" class="node"><title>10.1098/rspa.1989.0099</title>
<g id="a_node30"><a xlink:title="Quantum Computational Networks
(1989) Proceedings of the Royal Society A: Mathematical, Physical and Engineering Sciences
D. Deutsch
0 references &#45; 0 with doi
">
<ellipse fill="#00cdcd" stroke="#00cdcd" cx="57.1949" cy="-114" rx="57.3905" ry="18"/>
<text text-anchor="middle" x="57.1949" y="-110.3" font-family="Times,serif" font-size="14.00">Deutsch1989</text>
</a>
</g>
</g>
<!-- 10.1098/rspa.1989.0099&#45;&gt;10.1103/PhysRevA.52.R2493 -->
<g id="edge38" class="edge"><title>10.1098/rspa.1989.0099&#45;&gt;10.1103/PhysRevA.52.R2493</title>
<path fill="none" stroke="black" stroke-width="1.4" d="M101.213,-125.779C116.669,-129.857 134.264,-134.324 150.39,-138 208.938,-151.348 224.136,-152.012 282.978,-164 299.273,-167.32 317.049,-171.045 333.002,-174.425"/>
<polygon fill="black" stroke="black" stroke-width="1.4" points="332.678,-177.934 343.187,-176.589 334.133,-171.087 332.678,-177.934"/>
</g>
<!-- 10.1098/rspa.1989.0099&#45;&gt;10.1103/PhysRevLett.74.4083 -->
<g id="edge37" class="edge"><title>10.1098/rspa.1989.0099&#45;&gt;10.1103/PhysRevLett.74.4083</title>
<path fill="none" stroke="black" stroke-width="1.4" d="M114.607,-114C125.554,-114 137.129,-114 148.385,-114"/>
<polygon fill="black" stroke="black" stroke-width="1.4" points="148.606,-117.5 158.606,-114 148.606,-110.5 148.606,-117.5"/>
</g>
<!-- 10.1098/rspa.1989.0099&#45;&gt;10.1103/PhysRevLett.74.4091 -->
<g id="edge36" class="edge"><title>10.1098/rspa.1989.0099&#45;&gt;10.1103/PhysRevLett.74.4091</title>
<path fill="none" stroke="black" stroke-width="1.4" d="M96.5968,-100.824C102.866,-97.788 109.049,-94.192 114.39,-90 135.367,-73.5353 128.997,-57.9202 150.39,-42 155.604,-38.12 161.511,-34.8107 167.589,-32.0036"/>
<polygon fill="black" stroke="black" stroke-width="1.4" points="169.322,-35.0732 177.207,-27.9961 166.63,-28.6117 169.322,-35.0732"/>
</g>
<!-- 10.1103/PhysRev.114.1245&#45;&gt;10.1103/PhysRev.118.1534 -->
<g id="edge40" class="edge"><title>10.1103/PhysRev.114.1245&#45;&gt;10.1103/PhysRev.118.1534</title>
<path fill="none" stroke="black" stroke-width="1.4" d="M402.177,-509.285C432.581,-480.821 494.477,-422.875 529.166,-390.399"/>
<polygon fill="black" stroke="black" stroke-width="1.4" points="531.637,-392.881 536.545,-383.491 526.853,-387.771 531.637,-392.881"/>
</g>
<!-- 10.1103/PhysRev.114.1245&#45;&gt;10.1103/PhysRev.114.1219 -->
<g id="edge39" class="edge"><title>10.1103/PhysRev.114.1245&#45;&gt;10.1103/PhysRev.114.1219</title>
<path fill="none" stroke="black" stroke-width="1.4" d="M360.51,-541.996C340.569,-553.451 310.135,-568.481 282.978,-580 278.303,-581.983 273.402,-583.962 268.476,-585.858"/>
<polygon fill="black" stroke="black" stroke-width="1.4" points="267.172,-582.609 259.024,-589.382 269.617,-589.168 267.172,-582.609"/>
</g>
<!-- 10.1126/science.261.5128.1569 -->
<g id="node32" class="node"><title>10.1126/science.261.5128.1569</title>
<g id="a_node32"><a xlink:title="A Potentially Realizable Quantum Computer
(1993) Science
S. Lloyd
0 references &#45; 0 with doi
">
<ellipse fill="#00cdcd" stroke="#00cdcd" cx="57.1949" cy="-66" rx="49.2915" ry="18"/>
<text text-anchor="middle" x="57.1949" y="-62.3" font-family="Times,serif" font-size="14.00">Lloyd1993</text>
</a>
</g>
</g>
<!-- 10.1126/science.261.5128.1569&#45;&gt;10.1103/PhysRevLett.74.4083 -->
<g id="edge42" class="edge"><title>10.1126/science.261.5128.1569&#45;&gt;10.1103/PhysRevLett.74.4083</title>
<path fill="none" stroke="black" stroke-width="1.4" d="M95.5176,-77.3753C116.277,-83.7025 142.406,-91.6662 164.993,-98.5502"/>
<polygon fill="black" stroke="black" stroke-width="1.4" points="164.172,-101.959 174.758,-101.527 166.213,-95.2631 164.172,-101.959"/>
</g>
<!-- 10.1126/science.261.5128.1569&#45;&gt;10.1103/PhysRevLett.74.4091 -->
<g id="edge41" class="edge"><title>10.1126/science.261.5128.1569&#45;&gt;10.1103/PhysRevLett.74.4091</title>
<path fill="none" stroke="black" stroke-width="1.4" d="M95.5176,-54.6247C117.644,-47.881 145.869,-39.2783 169.405,-32.1052"/>
<polygon fill="black" stroke="black" stroke-width="1.4" points="170.627,-35.3915 179.172,-29.1281 168.586,-28.6956 170.627,-35.3915"/>
</g>
<!-- 10.1103/PhysRevLett.74.4091&#45;&gt;10.1103/PhysRevLett.75.4714 -->
<g id="edge43" class="edge"><title>10.1103/PhysRevLett.74.4091&#45;&gt;10.1103/PhysRevLett.75.4714</title>
<path fill="none" stroke="black" stroke-width="1.4" d="M257.597,-27.3292C266.674,-30.8278 275.758,-35.5793 282.978,-42 309.416,-65.5117 292.657,-89.3573 318.978,-113 322.367,-116.044 326.18,-118.716 330.212,-121.06"/>
<polygon fill="black" stroke="black" stroke-width="1.4" points="328.808,-124.272 339.309,-125.681 331.979,-118.031 328.808,-124.272"/>
</g>
<!-- 10.1103/PhysRevLett.74.4091&#45;&gt;10.1103/PhysRevLett.75.4710 -->
<g id="edge44" class="edge"><title>10.1103/PhysRevLett.74.4091&#45;&gt;10.1103/PhysRevLett.75.4710</title>
<path fill="none" stroke="black" stroke-width="1.4" d="M252.135,-30.0079C262.154,-33.676 273.066,-37.8433 282.978,-42 302.757,-50.294 324.32,-60.3659 342.287,-69.0553"/>
<polygon fill="black" stroke="black" stroke-width="1.4" points="340.803,-72.2257 351.326,-73.4566 343.867,-65.932 340.803,-72.2257"/>
</g>
<!-- 10.1103/PhysRevLett.79.2371 -->
<g id="node34" class="node"><title>10.1103/PhysRevLett.79.2371</title>
<g id="a_node34"><a xlink:title="Quantum Manipulations of Small Josephson Junctions
(1997) Physical Review Letters
Alexander Shnirman, Gerd Schön, Ziv Hermon
14 references &#45; 11 with doi
">
<ellipse fill="#ffd700" stroke="#ffd700" cx="749.096" cy="-27" rx="63.0888" ry="18"/>
<text text-anchor="middle" x="749.096" y="-23.3" font-family="Times,serif" font-size="14.00">Shnirman1997</text>
</a>
</g>
</g>
<!-- 10.1103/PhysRevLett.74.4091&#45;&gt;10.1103/PhysRevLett.79.2371 -->
<g id="edge45" class="edge"><title>10.1103/PhysRevLett.74.4091&#45;&gt;10.1103/PhysRevLett.79.2371</title>
<path fill="none" stroke="black" stroke-width="1.4" d="M264.29,-18.7908C357.075,-20.3652 565.464,-23.9011 676.025,-25.7771"/>
<polygon fill="black" stroke="black" stroke-width="1.4" points="676.03,-29.2776 686.088,-25.9478 676.148,-22.2786 676.03,-29.2776"/>
</g>
<!-- 10.1103/PhysRevLett.79.2371&#45;&gt;10.1103/PhysRevA.62.012306 -->
<g id="edge46" class="edge"><title>10.1103/PhysRevLett.79.2371&#45;&gt;10.1103/PhysRevA.62.012306</title>
<path fill="none" stroke="black" stroke-width="1.4" d="M792.788,-40.0918C806.908,-45.2957 822.365,-51.9767 835.539,-60 858.891,-74.2227 881.88,-95.0921 898.159,-111.365"/>
<polygon fill="black" stroke="black" stroke-width="1.4" points="896.083,-114.247 905.584,-118.935 901.08,-109.345 896.083,-114.247"/>
</g>
</g>
</svg>
