<?xml version="1.0" encoding="UTF-8" standalone="no"?>
<!DOCTYPE svg PUBLIC "-//W3C//DTD SVG 1.1//EN"
 "http://www.w3.org/Graphics/SVG/1.1/DTD/svg11.dtd">
<!-- Generated by graphviz version 2.38.0 (20140413.2041)
 -->
<!-- Title: %3 Pages: 1 -->
<svg width="576pt" height="270pt"
 viewBox="0.00 0.00 576.00 270.22" xmlns="http://www.w3.org/2000/svg" xmlns:xlink="http://www.w3.org/1999/xlink">
<g id="graph0" class="graph" transform="scale(0.482528 0.482528) rotate(0) translate(4 556)">
<title>%3</title>
<polygon fill="white" stroke="none" points="-4,4 -4,-556 1189.71,-556 1189.71,4 -4,4"/>
<!-- 10.1103/PhysRev.118.1523 -->
<g id="node1" class="node"><title>10.1103/PhysRev.118.1523</title>
<g id="a_node1"><a xlink:title="Spin&#45;Lattice Relaxation of Shallow Donor States in Ge and Si through a Dire...
(1960) Physical Review
Hiroshi Hasegawa
29 references &#45; 23 with doi
">
<ellipse fill="#ffd700" stroke="#ffd700" cx="596.107" cy="-27" rx="64.189" ry="18"/>
<text text-anchor="middle" x="596.107" y="-23.3" font-family="Times,serif" font-size="14.00">Hasegawa1960</text>
</a>
</g>
</g>
<!-- 10.1103/PhysRev.124.1068 -->
<g id="node2" class="node"><title>10.1103/PhysRev.124.1068</title>
<g id="a_node2"><a xlink:title="Electron Spin Resonance Experiments on Donors in Silicon. III. Investigatio...
(1961) Physical Review
D. K. Wilson, G. Feher
29 references &#45; 19 with doi
">
<ellipse fill="#ffd700" stroke="#ffd700" cx="767.945" cy="-53" rx="53.8905" ry="18"/>
<text text-anchor="middle" x="767.945" y="-49.3" font-family="Times,serif" font-size="14.00">Wilson1961</text>
</a>
</g>
</g>
<!-- 10.1103/PhysRev.118.1523&#45;&gt;10.1103/PhysRev.124.1068 -->
<g id="edge1" class="edge"><title>10.1103/PhysRev.118.1523&#45;&gt;10.1103/PhysRev.124.1068</title>
<path fill="none" stroke="black" stroke-width="1.4" d="M653.189,-35.5854C670.96,-38.306 690.643,-41.3192 708.571,-44.0637"/>
<polygon fill="black" stroke="black" stroke-width="1.4" points="708.196,-47.547 718.611,-45.6007 709.255,-40.6276 708.196,-47.547"/>
</g>
<!-- 10.1103/PhysRev.134.A265 -->
<g id="node3" class="node"><title>10.1103/PhysRev.134.A265</title>
<g id="a_node3"><a xlink:title="Electron Spin Resonance Experiments on Shallow Donors in Germanium
(1964) Physical Review
D. K. Wilson
46 references &#45; 38 with doi
">
<ellipse fill="#ffd700" stroke="#ffd700" cx="961.881" cy="-126" rx="53.8905" ry="18"/>
<text text-anchor="middle" x="961.881" y="-122.3" font-family="Times,serif" font-size="14.00">Wilson1964</text>
</a>
</g>
</g>
<!-- 10.1103/PhysRev.124.1068&#45;&gt;10.1103/PhysRev.134.A265 -->
<g id="edge2" class="edge"><title>10.1103/PhysRev.124.1068&#45;&gt;10.1103/PhysRev.134.A265</title>
<path fill="none" stroke="black" stroke-width="1.4" d="M804.149,-66.3893C835.57,-78.34 881.755,-95.9059 915.856,-108.876"/>
<polygon fill="black" stroke="black" stroke-width="1.4" points="914.984,-112.289 925.575,-112.572 917.473,-105.746 914.984,-112.289"/>
</g>
<!-- 10.1103/PhysRevA.62.012306 -->
<g id="node4" class="node"><title>10.1103/PhysRevA.62.012306</title>
<g id="a_node4"><a xlink:title="Electron&#45;spin&#45;resonance transistors for quantum computing in silicon&#45;german...
(2000) Physical Review A
Rutger Vrijen, Eli Yablonovitch, Kang Wang, Hong Wen Jiang, Alex Balandin, Vwani Roychowdhury, Tal Mor, David DiVincenzo
35 references &#45; 31 with doi
">
<ellipse fill="red" stroke="red" cx="1135.02" cy="-284" rx="50.8918" ry="18"/>
<text text-anchor="middle" x="1135.02" y="-280.3" font-family="Times,serif" font-size="14.00">Vrijen2000</text>
</a>
</g>
</g>
<!-- 10.1103/PhysRev.134.A265&#45;&gt;10.1103/PhysRevA.62.012306 -->
<g id="edge3" class="edge"><title>10.1103/PhysRev.134.A265&#45;&gt;10.1103/PhysRevA.62.012306</title>
<path fill="none" stroke="black" stroke-width="1.4" d="M981.195,-142.909C1011.82,-171.181 1073.49,-228.115 1108.4,-260.347"/>
<polygon fill="black" stroke="black" stroke-width="1.4" points="1106.11,-263.001 1115.84,-267.213 1110.86,-257.858 1106.11,-263.001"/>
</g>
<!-- 10.1098/rspa.1992.0167 -->
<g id="node5" class="node"><title>10.1098/rspa.1992.0167</title>
<g id="a_node5"><a xlink:title="Rapid Solution of Problems by Quantum Computation
(1992) Proceedings of the Royal Society A: Mathematical, Physical and Engineering Sciences
D. Deutsch, R. Jozsa
0 references &#45; 0 with doi
">
<ellipse fill="#00cdcd" stroke="#00cdcd" cx="76.0433" cy="-486" rx="57.3905" ry="18"/>
<text text-anchor="middle" x="76.0433" y="-482.3" font-family="Times,serif" font-size="14.00">Deutsch1992</text>
</a>
</g>
</g>
<!-- 10.1103/PhysRevA.51.992 -->
<g id="node21" class="node"><title>10.1103/PhysRevA.51.992</title>
<g id="a_node21"><a xlink:title="Maintaining coherence in quantum computers
(1995) Physical Review A
W. G. Unruh
6 references &#45; 5 with doi
">
<ellipse fill="#ffd700" stroke="#ffd700" cx="258.93" cy="-486" rx="50.8918" ry="18"/>
<text text-anchor="middle" x="258.93" y="-482.3" font-family="Times,serif" font-size="14.00">Unruh1995</text>
</a>
</g>
</g>
<!-- 10.1098/rspa.1992.0167&#45;&gt;10.1103/PhysRevA.51.992 -->
<g id="edge4" class="edge"><title>10.1098/rspa.1992.0167&#45;&gt;10.1103/PhysRevA.51.992</title>
<path fill="none" stroke="black" stroke-width="1.4" d="M133.285,-486C153.874,-486 177.235,-486 198.123,-486"/>
<polygon fill="black" stroke="black" stroke-width="1.4" points="198.156,-489.5 208.156,-486 198.156,-482.5 198.156,-489.5"/>
</g>
<!-- 10.1126/science.275.5298.350 -->
<g id="node6" class="node"><title>10.1126/science.275.5298.350</title>
<g id="a_node6"><a xlink:title="Bulk Spin&#45;Resonance Quantum Computation
(1997) Science
N. A. Gershenfeld, I. L. Chuang
26 references &#45; 22 with doi
">
<ellipse fill="#ffd700" stroke="#ffd700" cx="767.945" cy="-369" rx="71.4873" ry="18"/>
<text text-anchor="middle" x="767.945" y="-365.3" font-family="Times,serif" font-size="14.00">Gershenfeld1997</text>
</a>
</g>
</g>
<!-- 10.1103/PhysRevA.57.R1 -->
<g id="node7" class="node"><title>10.1103/PhysRevA.57.R1</title>
<g id="a_node7"><a xlink:title="Qubit&#45;qubit interaction in quantum computers
(1998) Physical Review A
Julio Gea&#45;Banacloche
10 references &#45; 10 with doi
">
<ellipse fill="#ffd700" stroke="#ffd700" cx="961.881" cy="-369" rx="86.3847" ry="18"/>
<text text-anchor="middle" x="961.881" y="-365.3" font-family="Times,serif" font-size="14.00">Gea&#45;Banacloche1998</text>
</a>
</g>
</g>
<!-- 10.1126/science.275.5298.350&#45;&gt;10.1103/PhysRevA.57.R1 -->
<g id="edge5" class="edge"><title>10.1126/science.275.5298.350&#45;&gt;10.1103/PhysRevA.57.R1</title>
<path fill="none" stroke="black" stroke-width="1.4" d="M839.597,-369C847.971,-369 856.622,-369 865.269,-369"/>
<polygon fill="black" stroke="black" stroke-width="1.4" points="865.402,-372.5 875.402,-369 865.402,-365.5 865.402,-372.5"/>
</g>
<!-- 10.1103/PhysRevA.57.R1&#45;&gt;10.1103/PhysRevA.62.012306 -->
<g id="edge6" class="edge"><title>10.1103/PhysRevA.57.R1&#45;&gt;10.1103/PhysRevA.62.012306</title>
<path fill="none" stroke="black" stroke-width="1.4" d="M1020.87,-355.644C1030.25,-352.656 1039.71,-349.123 1048.32,-345 1069.37,-334.933 1090.74,-319.725 1106.88,-307.013"/>
<polygon fill="black" stroke="black" stroke-width="1.4" points="1109.22,-309.628 1114.82,-300.634 1104.83,-304.173 1109.22,-309.628"/>
</g>
<!-- 10.1103/PhysRevLett.75.4714 -->
<g id="node8" class="node"><title>10.1103/PhysRevLett.75.4714</title>
<g id="a_node8"><a xlink:title="Demonstration of a Fundamental Quantum Logic Gate
(1995) Physical Review Letters
C. Monroe, D. M. Meekhof, B. E. King, W. M. Itano, D. J. Wineland
28 references &#45; 22 with doi
">
<ellipse fill="#ffd700" stroke="#ffd700" cx="596.107" cy="-417" rx="56.59" ry="18"/>
<text text-anchor="middle" x="596.107" y="-413.3" font-family="Times,serif" font-size="14.00">Monroe1995</text>
</a>
</g>
</g>
<!-- 10.1103/PhysRevLett.75.4714&#45;&gt;10.1126/science.275.5298.350 -->
<g id="edge7" class="edge"><title>10.1103/PhysRevLett.75.4714&#45;&gt;10.1126/science.275.5298.350</title>
<path fill="none" stroke="black" stroke-width="1.4" d="M639.089,-405.135C660.491,-399.086 686.831,-391.642 710.03,-385.085"/>
<polygon fill="black" stroke="black" stroke-width="1.4" points="711.086,-388.424 719.757,-382.336 709.182,-381.688 711.086,-388.424"/>
</g>
<!-- 10.1103/PhysRev.95.844 -->
<g id="node9" class="node"><title>10.1103/PhysRev.95.844</title>
<g id="a_node9"><a xlink:title="Hyperfine Splitting in Spin Resonance of Group V Donors in Silicon
(1954) Physical Review
R. C. Fletcher, W. A. Yager, G. L. Pearson, F. R. Merritt
4 references &#45; 4 with doi
">
<ellipse fill="#00cdcd" stroke="#00cdcd" cx="258.93" cy="-162" rx="57.3905" ry="18"/>
<text text-anchor="middle" x="258.93" y="-158.3" font-family="Times,serif" font-size="14.00">Fletcher1954</text>
</a>
</g>
</g>
<!-- 10.1103/PhysRev.114.1219 -->
<g id="node23" class="node"><title>10.1103/PhysRev.114.1219</title>
<g id="a_node23"><a xlink:title="Electron Spin Resonance Experiments on Donors in Silicon. I. Electronic Str...
(1959) Physical Review
G. Feher
59 references &#45; 42 with doi
">
<ellipse fill="#ffd700" stroke="#ffd700" cx="430.768" cy="-162" rx="48.1917" ry="18"/>
<text text-anchor="middle" x="430.768" y="-158.3" font-family="Times,serif" font-size="14.00">Feher1959</text>
</a>
</g>
</g>
<!-- 10.1103/PhysRev.95.844&#45;&gt;10.1103/PhysRev.114.1219 -->
<g id="edge8" class="edge"><title>10.1103/PhysRev.95.844&#45;&gt;10.1103/PhysRev.114.1219</title>
<path fill="none" stroke="black" stroke-width="1.4" d="M316.484,-162C334.475,-162 354.385,-162 372.431,-162"/>
<polygon fill="black" stroke="black" stroke-width="1.4" points="372.526,-165.5 382.526,-162 372.526,-158.5 372.526,-165.5"/>
</g>
<!-- 10.1103/PhysRevA.51.1015 -->
<g id="node10" class="node"><title>10.1103/PhysRevA.51.1015</title>
<g id="a_node10"><a xlink:title="Two&#45;bit gates are universal for quantum computation
(1995) Physical Review A
David P. DiVincenzo
32 references &#45; 21 with doi
">
<ellipse fill="#00cdcd" stroke="#00cdcd" cx="258.93" cy="-390" rx="70.6878" ry="18"/>
<text text-anchor="middle" x="258.93" y="-386.3" font-family="Times,serif" font-size="14.00">DiVincenzo1995</text>
</a>
</g>
</g>
<!-- 10.1103/PhysRevA.52.R2493 -->
<g id="node11" class="node"><title>10.1103/PhysRevA.52.R2493</title>
<g id="a_node11"><a xlink:title="Scheme for reducing decoherence in quantum computer memory
(1995) Physical Review A
Peter W. Shor
12 references &#45; 7 with doi
">
<ellipse fill="#ffd700" stroke="#ffd700" cx="430.768" cy="-438" rx="44.6926" ry="18"/>
<text text-anchor="middle" x="430.768" y="-434.3" font-family="Times,serif" font-size="14.00">Shor1995</text>
</a>
</g>
</g>
<!-- 10.1103/PhysRevA.51.1015&#45;&gt;10.1103/PhysRevA.52.R2493 -->
<g id="edge9" class="edge"><title>10.1103/PhysRevA.51.1015&#45;&gt;10.1103/PhysRevA.52.R2493</title>
<path fill="none" stroke="black" stroke-width="1.4" d="M307.24,-403.371C331.201,-410.143 360.169,-418.33 383.921,-425.043"/>
<polygon fill="black" stroke="black" stroke-width="1.4" points="383.177,-428.469 393.752,-427.821 385.08,-421.733 383.177,-428.469"/>
</g>
<!-- 10.1103/PhysRevLett.74.4091 -->
<g id="node30" class="node"><title>10.1103/PhysRevLett.74.4091</title>
<g id="a_node30"><a xlink:title="Quantum Computations with Cold Trapped Ions
(1995) Physical Review Letters
J. I. Cirac, P. Zoller
13 references &#45; 12 with doi
">
<ellipse fill="#ffd700" stroke="#ffd700" cx="430.768" cy="-321" rx="47.3916" ry="18"/>
<text text-anchor="middle" x="430.768" y="-317.3" font-family="Times,serif" font-size="14.00">Cirac1995</text>
</a>
</g>
</g>
<!-- 10.1103/PhysRevA.51.1015&#45;&gt;10.1103/PhysRevLett.74.4091 -->
<g id="edge10" class="edge"><title>10.1103/PhysRevA.51.1015&#45;&gt;10.1103/PhysRevLett.74.4091</title>
<path fill="none" stroke="black" stroke-width="1.4" d="M304.412,-376.188C312.949,-373.126 321.731,-369.684 329.774,-366 346.615,-358.286 349.042,-352.947 365.774,-345 371.967,-342.058 378.625,-339.222 385.221,-336.593"/>
<polygon fill="black" stroke="black" stroke-width="1.4" points="386.714,-339.769 394.782,-332.902 384.192,-333.239 386.714,-339.769"/>
</g>
<!-- 10.1103/PhysRevA.52.R2493&#45;&gt;10.1126/science.275.5298.350 -->
<g id="edge11" class="edge"><title>10.1103/PhysRevA.52.R2493&#45;&gt;10.1126/science.275.5298.350</title>
<path fill="none" stroke="black" stroke-width="1.4" d="M471.647,-445.746C518.117,-453.14 596.671,-460.537 660.451,-441 691.021,-431.635 720.727,-410.204 740.962,-393.144"/>
<polygon fill="black" stroke="black" stroke-width="1.4" points="743.498,-395.577 748.764,-386.384 738.914,-390.287 743.498,-395.577"/>
</g>
<!-- 10.1103/PhysRev.70.460 -->
<g id="node12" class="node"><title>10.1103/PhysRev.70.460</title>
<g id="a_node12"><a xlink:title="Nuclear Induction
(1946) Physical Review
F. Bloch
14 references &#45; 12 with doi
">
<ellipse fill="#00cdcd" stroke="#00cdcd" cx="596.107" cy="-369" rx="49.2915" ry="18"/>
<text text-anchor="middle" x="596.107" y="-365.3" font-family="Times,serif" font-size="14.00">Bloch1946</text>
</a>
</g>
</g>
<!-- 10.1103/PhysRev.70.460&#45;&gt;10.1126/science.275.5298.350 -->
<g id="edge12" class="edge"><title>10.1103/PhysRev.70.460&#45;&gt;10.1126/science.275.5298.350</title>
<path fill="none" stroke="black" stroke-width="1.4" d="M645.775,-369C658.475,-369 672.505,-369 686.38,-369"/>
<polygon fill="black" stroke="black" stroke-width="1.4" points="686.435,-372.5 696.435,-369 686.435,-365.5 686.435,-372.5"/>
</g>
<!-- 10.1098/rspa.1985.0070 -->
<g id="node13" class="node"><title>10.1098/rspa.1985.0070</title>
<g id="a_node13"><a xlink:title="Quantum Theory, the Church&#45;Turing Principle and the Universal Quantum Compu...
(1985) Proceedings of the Royal Society A: Mathematical, Physical and Engineering Sciences
D. Deutsch
0 references &#45; 0 with doi
">
<ellipse fill="#00cdcd" stroke="#00cdcd" cx="258.93" cy="-438" rx="57.3905" ry="18"/>
<text text-anchor="middle" x="258.93" y="-434.3" font-family="Times,serif" font-size="14.00">Deutsch1985</text>
</a>
</g>
</g>
<!-- 10.1098/rspa.1985.0070&#45;&gt;10.1103/PhysRevA.52.R2493 -->
<g id="edge14" class="edge"><title>10.1098/rspa.1985.0070&#45;&gt;10.1103/PhysRevA.52.R2493</title>
<path fill="none" stroke="black" stroke-width="1.4" d="M316.484,-438C335.536,-438 356.74,-438 375.603,-438"/>
<polygon fill="black" stroke="black" stroke-width="1.4" points="375.813,-441.5 385.813,-438 375.813,-434.5 375.813,-441.5"/>
</g>
<!-- 10.1103/PhysRevLett.74.4083 -->
<g id="node20" class="node"><title>10.1103/PhysRevLett.74.4083</title>
<g id="a_node20"><a xlink:title="Conditional Quantum Dynamics and Logic Gates
(1995) Physical Review Letters
Adriano Barenco, David Deutsch, Artur Ekert, Richard Jozsa
16 references &#45; 13 with doi
">
<ellipse fill="#ffd700" stroke="#ffd700" cx="430.768" cy="-369" rx="57.6901" ry="18"/>
<text text-anchor="middle" x="430.768" y="-365.3" font-family="Times,serif" font-size="14.00">Barenco1995</text>
</a>
</g>
</g>
<!-- 10.1098/rspa.1985.0070&#45;&gt;10.1103/PhysRevLett.74.4083 -->
<g id="edge13" class="edge"><title>10.1098/rspa.1985.0070&#45;&gt;10.1103/PhysRevLett.74.4083</title>
<path fill="none" stroke="black" stroke-width="1.4" d="M299.318,-425.173C309.319,-421.723 319.998,-417.87 329.774,-414 349.339,-406.255 370.65,-396.809 388.552,-388.575"/>
<polygon fill="black" stroke="black" stroke-width="1.4" points="390.512,-391.524 398.114,-384.144 387.569,-385.173 390.512,-391.524"/>
</g>
<!-- 10.1103/PhysRevLett.75.4710 -->
<g id="node14" class="node"><title>10.1103/PhysRevLett.75.4710</title>
<g id="a_node14"><a xlink:title="Measurement of Conditional Phase Shifts for Quantum Logic
(1995) Physical Review Letters
Q. A. Turchette, C. J. Hood, W. Lange, H. Mabuchi, H. J. Kimble
16 references &#45; 12 with doi
">
<ellipse fill="#ffd700" stroke="#ffd700" cx="596.107" cy="-321" rx="61.99" ry="18"/>
<text text-anchor="middle" x="596.107" y="-317.3" font-family="Times,serif" font-size="14.00">Turchette1995</text>
</a>
</g>
</g>
<!-- 10.1103/PhysRevLett.75.4710&#45;&gt;10.1126/science.275.5298.350 -->
<g id="edge16" class="edge"><title>10.1103/PhysRevLett.75.4710&#45;&gt;10.1126/science.275.5298.350</title>
<path fill="none" stroke="black" stroke-width="1.4" d="M641.286,-333.486C662.262,-339.414 687.584,-346.571 709.985,-352.902"/>
<polygon fill="black" stroke="black" stroke-width="1.4" points="709.139,-356.3 719.714,-355.651 711.043,-349.564 709.139,-356.3"/>
</g>
<!-- 10.1103/PhysRevA.57.120 -->
<g id="node15" class="node"><title>10.1103/PhysRevA.57.120</title>
<g id="a_node15"><a xlink:title="Quantum computation with quantum dots
(1998) Physical Review A
Daniel Loss, David P. DiVincenzo
28 references &#45; 22 with doi
">
<ellipse fill="#ffd700" stroke="#ffd700" cx="961.881" cy="-321" rx="44.6926" ry="18"/>
<text text-anchor="middle" x="961.881" y="-317.3" font-family="Times,serif" font-size="14.00">Loss1998</text>
</a>
</g>
</g>
<!-- 10.1103/PhysRevLett.75.4710&#45;&gt;10.1103/PhysRevA.57.120 -->
<g id="edge15" class="edge"><title>10.1103/PhysRevLett.75.4710&#45;&gt;10.1103/PhysRevA.57.120</title>
<path fill="none" stroke="black" stroke-width="1.4" d="M657.994,-321C727.495,-321 840.131,-321 906.701,-321"/>
<polygon fill="black" stroke="black" stroke-width="1.4" points="906.976,-324.5 916.976,-321 906.976,-317.5 906.976,-324.5"/>
</g>
<!-- 10.1103/PhysRevA.57.120&#45;&gt;10.1103/PhysRevA.62.012306 -->
<g id="edge17" class="edge"><title>10.1103/PhysRevA.57.120&#45;&gt;10.1103/PhysRevA.62.012306</title>
<path fill="none" stroke="black" stroke-width="1.4" d="M1001.71,-312.604C1025.31,-307.503 1055.74,-300.924 1081.47,-295.361"/>
<polygon fill="black" stroke="black" stroke-width="1.4" points="1082.4,-298.74 1091.44,-293.206 1080.92,-291.898 1082.4,-298.74"/>
</g>
<!-- 10.1103/PhysRev.73.679 -->
<g id="node16" class="node"><title>10.1103/PhysRev.73.679</title>
<g id="a_node16"><a xlink:title="Relaxation Effects in Nuclear Magnetic Resonance Absorption
(1948) Physical Review
N. Bloembergen, E. M. Purcell, R. V. Pound
31 references &#45; 22 with doi
">
<ellipse fill="#00cdcd" stroke="#00cdcd" cx="76.0433" cy="-534" rx="76.0865" ry="18"/>
<text text-anchor="middle" x="76.0433" y="-530.3" font-family="Times,serif" font-size="14.00">Bloembergen1948</text>
</a>
</g>
</g>
<!-- 10.1103/PhysRev.107.491 -->
<g id="node17" class="node"><title>10.1103/PhysRev.107.491</title>
<g id="a_node17"><a xlink:title="Donor Electron Spin Relaxation in Silicon
(1957) Physical Review
Elihu Abrahams
14 references &#45; 13 with doi
">
<ellipse fill="#00cdcd" stroke="#00cdcd" cx="430.768" cy="-114" rx="64.9885" ry="18"/>
<text text-anchor="middle" x="430.768" y="-110.3" font-family="Times,serif" font-size="14.00">Abrahams1957</text>
</a>
</g>
</g>
<!-- 10.1103/PhysRev.114.1245 -->
<g id="node29" class="node"><title>10.1103/PhysRev.114.1245</title>
<g id="a_node29"><a xlink:title="Electron Spin Resonance Experiments on Donors in Silicon. II. Electron Spin...
(1959) Physical Review
G. Feher, E. A. Gere
44 references &#45; 31 with doi
">
<ellipse fill="#ffd700" stroke="#ffd700" cx="596.107" cy="-153" rx="48.1917" ry="18"/>
<text text-anchor="middle" x="596.107" y="-149.3" font-family="Times,serif" font-size="14.00">Feher1959</text>
</a>
</g>
</g>
<!-- 10.1103/PhysRev.107.491&#45;&gt;10.1103/PhysRev.114.1245 -->
<g id="edge18" class="edge"><title>10.1103/PhysRev.107.491&#45;&gt;10.1103/PhysRev.114.1245</title>
<path fill="none" stroke="black" stroke-width="1.4" d="M480.775,-125.701C501.206,-130.58 524.902,-136.237 545.406,-141.133"/>
<polygon fill="black" stroke="black" stroke-width="1.4" points="544.648,-144.55 555.187,-143.468 546.273,-137.742 544.648,-144.55"/>
</g>
<!-- 10.1103/PhysRev.118.1534 -->
<g id="node18" class="node"><title>10.1103/PhysRev.118.1534</title>
<g id="a_node18"><a xlink:title="gFactor and Donor Spin&#45;Lattice Relaxation for Electrons in Germanium and Si...
(1960) Physical Review
Laura M. Roth
20 references &#45; 17 with doi
">
<ellipse fill="#ffd700" stroke="#ffd700" cx="767.945" cy="-126" rx="45.4919" ry="18"/>
<text text-anchor="middle" x="767.945" y="-122.3" font-family="Times,serif" font-size="14.00">Roth1960</text>
</a>
</g>
</g>
<!-- 10.1103/PhysRev.118.1534&#45;&gt;10.1103/PhysRev.134.A265 -->
<g id="edge19" class="edge"><title>10.1103/PhysRev.118.1534&#45;&gt;10.1103/PhysRev.134.A265</title>
<path fill="none" stroke="black" stroke-width="1.4" d="M813.461,-126C838.403,-126 869.928,-126 897.418,-126"/>
<polygon fill="black" stroke="black" stroke-width="1.4" points="897.734,-129.5 907.734,-126 897.734,-122.5 897.734,-129.5"/>
</g>
<!-- 10.1103/PhysRevLett.1.275 -->
<g id="node19" class="node"><title>10.1103/PhysRevLett.1.275</title>
<g id="a_node19"><a xlink:title="Electron Spin&#45;Lattice Relaxation in Phosphorus&#45;Doped Silicon
(1958) Physical Review Letters
H. Honig, E. Stupp
6 references &#45; 3 with doi
">
<ellipse fill="#00cdcd" stroke="#00cdcd" cx="430.768" cy="-66" rx="50.0912" ry="18"/>
<text text-anchor="middle" x="430.768" y="-62.3" font-family="Times,serif" font-size="14.00">Honig1958</text>
</a>
</g>
</g>
<!-- 10.1103/PhysRevLett.1.275&#45;&gt;10.1103/PhysRev.114.1245 -->
<g id="edge20" class="edge"><title>10.1103/PhysRevLett.1.275&#45;&gt;10.1103/PhysRev.114.1245</title>
<path fill="none" stroke="black" stroke-width="1.4" d="M468.2,-78.1798C477.357,-81.6422 487.052,-85.6632 495.762,-90 519.86,-101.999 545.48,-118.344 564.666,-131.378"/>
<polygon fill="black" stroke="black" stroke-width="1.4" points="562.776,-134.326 573,-137.106 566.741,-128.557 562.776,-134.326"/>
</g>
<!-- 10.1103/PhysRevLett.74.4083&#45;&gt;10.1103/PhysRevLett.75.4714 -->
<g id="edge21" class="edge"><title>10.1103/PhysRevLett.74.4083&#45;&gt;10.1103/PhysRevLett.75.4714</title>
<path fill="none" stroke="black" stroke-width="1.4" d="M473.408,-381.237C494.897,-387.552 521.299,-395.31 544.012,-401.985"/>
<polygon fill="black" stroke="black" stroke-width="1.4" points="543.245,-405.407 553.826,-404.869 545.219,-398.691 543.245,-405.407"/>
</g>
<!-- 10.1103/PhysRevLett.74.4083&#45;&gt;10.1103/PhysRevLett.75.4710 -->
<g id="edge22" class="edge"><title>10.1103/PhysRevLett.74.4083&#45;&gt;10.1103/PhysRevLett.75.4710</title>
<path fill="none" stroke="black" stroke-width="1.4" d="M473.408,-356.763C494.403,-350.594 520.087,-343.046 542.44,-336.477"/>
<polygon fill="black" stroke="black" stroke-width="1.4" points="543.511,-339.81 552.119,-333.633 541.538,-333.094 543.511,-339.81"/>
</g>
<!-- 10.1103/PhysRevA.51.992&#45;&gt;10.1103/PhysRevLett.75.4714 -->
<g id="edge23" class="edge"><title>10.1103/PhysRevA.51.992&#45;&gt;10.1103/PhysRevLett.75.4714</title>
<path fill="none" stroke="black" stroke-width="1.4" d="M310.009,-485.57C358.337,-484.07 433.179,-478.875 495.762,-462 517.246,-456.207 539.94,-446.25 558.205,-437.173"/>
<polygon fill="black" stroke="black" stroke-width="1.4" points="559.999,-440.188 567.324,-432.533 556.824,-433.949 559.999,-440.188"/>
</g>
<!-- 10.1103/PhysRevA.51.992&#45;&gt;10.1103/PhysRevA.52.R2493 -->
<g id="edge24" class="edge"><title>10.1103/PhysRevA.51.992&#45;&gt;10.1103/PhysRevA.52.R2493</title>
<path fill="none" stroke="black" stroke-width="1.4" d="M299.321,-474.867C324.52,-467.746 357.312,-458.478 383.713,-451.016"/>
<polygon fill="black" stroke="black" stroke-width="1.4" points="384.819,-454.341 393.49,-448.253 382.915,-447.605 384.819,-454.341"/>
</g>
<!-- 10.1103/PhysRev.101.944 -->
<g id="node22" class="node"><title>10.1103/PhysRev.101.944</title>
<g id="a_node22"><a xlink:title="Transport and Deformation&#45;Potential Theory for Many&#45;Valley Semiconductors w...
(1956) Physical Review
Conyers Herring, Erich Vogt
25 references &#45; 25 with doi
">
<ellipse fill="#00cdcd" stroke="#00cdcd" cx="430.768" cy="-18" rx="55.7903" ry="18"/>
<text text-anchor="middle" x="430.768" y="-14.3" font-family="Times,serif" font-size="14.00">Herring1956</text>
</a>
</g>
</g>
<!-- 10.1103/PhysRev.101.944&#45;&gt;10.1103/PhysRev.118.1523 -->
<g id="edge25" class="edge"><title>10.1103/PhysRev.101.944&#45;&gt;10.1103/PhysRev.118.1523</title>
<path fill="none" stroke="black" stroke-width="1.4" d="M486.158,-20.9969C497.83,-21.6401 510.343,-22.3295 522.579,-23.0037"/>
<polygon fill="black" stroke="black" stroke-width="1.4" points="522.59,-26.5095 532.767,-23.5651 522.975,-19.5201 522.59,-26.5095"/>
</g>
<!-- 10.1103/PhysRev.101.944&#45;&gt;10.1103/PhysRev.118.1534 -->
<g id="edge26" class="edge"><title>10.1103/PhysRev.101.944&#45;&gt;10.1103/PhysRev.118.1534</title>
<path fill="none" stroke="black" stroke-width="1.4" d="M470.201,-30.7836C488.783,-36.9389 511.418,-44.3991 531.762,-51 597.982,-72.485 674.86,-96.9025 722.205,-111.88"/>
<polygon fill="black" stroke="black" stroke-width="1.4" points="721.256,-115.25 731.846,-114.928 723.366,-108.576 721.256,-115.25"/>
</g>
<!-- 10.1103/PhysRev.114.1219&#45;&gt;10.1103/PhysRev.114.1245 -->
<g id="edge27" class="edge"><title>10.1103/PhysRev.114.1219&#45;&gt;10.1103/PhysRev.114.1245</title>
<path fill="none" stroke="black" stroke-width="1.4" d="M475.97,-155.515C495.044,-153.971 517.6,-152.64 537.926,-151.836"/>
<polygon fill="black" stroke="black" stroke-width="1.4" points="538.141,-155.33 548.01,-151.474 537.891,-148.335 538.141,-155.33"/>
</g>
<!-- 10.1103/PhysRev.98.915 -->
<g id="node24" class="node"><title>10.1103/PhysRev.98.915</title>
<g id="a_node24"><a xlink:title="Theory of Donor States in Silicon
(1955) Physical Review
W. Kohn, J. M. Luttinger
9 references &#45; 7 with doi
">
<ellipse fill="#00cdcd" stroke="#00cdcd" cx="258.93" cy="-229" rx="48.1917" ry="18"/>
<text text-anchor="middle" x="258.93" y="-225.3" font-family="Times,serif" font-size="14.00">Kohn1955</text>
</a>
</g>
</g>
<!-- 10.1103/PhysRev.98.915&#45;&gt;10.1103/PhysRev.114.1219 -->
<g id="edge28" class="edge"><title>10.1103/PhysRev.98.915&#45;&gt;10.1103/PhysRev.114.1219</title>
<path fill="none" stroke="black" stroke-width="1.4" d="M291.799,-215.791C312.762,-207.166 340.833,-195.741 365.774,-186 372.309,-183.448 379.239,-180.794 386.032,-178.222"/>
<polygon fill="black" stroke="black" stroke-width="1.4" points="387.702,-181.334 395.827,-174.534 385.235,-174.783 387.702,-181.334"/>
</g>
<!-- 10.1103/PhysRevB.24.4714 -->
<g id="node25" class="node"><title>10.1103/PhysRevB.24.4714</title>
<g id="a_node25"><a xlink:title="Hydrogenic impurity states in a quantum well: A simple model
(1981) Physical Review B
G. Bastard
13 references &#45; 6 with doi
">
<ellipse fill="#ffd700" stroke="#ffd700" cx="961.881" cy="-247" rx="55.4913" ry="18"/>
<text text-anchor="middle" x="961.881" y="-243.3" font-family="Times,serif" font-size="14.00">Bastard1981</text>
</a>
</g>
</g>
<!-- 10.1103/PhysRev.98.915&#45;&gt;10.1103/PhysRevB.24.4714 -->
<g id="edge29" class="edge"><title>10.1103/PhysRev.98.915&#45;&gt;10.1103/PhysRevB.24.4714</title>
<path fill="none" stroke="black" stroke-width="1.4" d="M306.814,-231.471C325.195,-232.372 346.469,-233.333 365.774,-234 558.626,-240.66 786.757,-244.521 896.1,-246.123"/>
<polygon fill="black" stroke="black" stroke-width="1.4" points="896.256,-249.625 906.305,-246.271 896.357,-242.626 896.256,-249.625"/>
</g>
<!-- 10.1103/PhysRevB.24.4714&#45;&gt;10.1103/PhysRevA.62.012306 -->
<g id="edge30" class="edge"><title>10.1103/PhysRevB.24.4714&#45;&gt;10.1103/PhysRevA.62.012306</title>
<path fill="none" stroke="black" stroke-width="1.4" d="M1008.29,-256.818C1030.72,-261.667 1057.91,-267.545 1081.26,-272.593"/>
<polygon fill="black" stroke="black" stroke-width="1.4" points="1080.83,-276.081 1091.34,-274.773 1082.31,-269.239 1080.83,-276.081"/>
</g>
<!-- 10.1103/PhysRev.106.489 -->
<g id="node26" class="node"><title>10.1103/PhysRev.106.489</title>
<g id="a_node26"><a xlink:title="Nuclear Polarization and Impurity&#45;State Spin Relaxation Processes in Silico...
(1957) Physical Review
David Pines, John Bardeen, Charles P. Slichter
17 references &#45; 15 with doi
">
<ellipse fill="#00cdcd" stroke="#00cdcd" cx="430.768" cy="-210" rx="47.3916" ry="18"/>
<text text-anchor="middle" x="430.768" y="-206.3" font-family="Times,serif" font-size="14.00">Pines1957</text>
</a>
</g>
</g>
<!-- 10.1103/PhysRev.106.489&#45;&gt;10.1103/PhysRev.114.1245 -->
<g id="edge31" class="edge"><title>10.1103/PhysRev.106.489&#45;&gt;10.1103/PhysRev.114.1245</title>
<path fill="none" stroke="black" stroke-width="1.4" d="M466.408,-197.912C491.012,-189.326 524.254,-177.725 550.791,-168.465"/>
<polygon fill="black" stroke="black" stroke-width="1.4" points="551.947,-171.768 560.236,-165.169 549.641,-165.159 551.947,-171.768"/>
</g>
<!-- 10.1098/rspa.1989.0099 -->
<g id="node27" class="node"><title>10.1098/rspa.1989.0099</title>
<g id="a_node27"><a xlink:title="Quantum Computational Networks
(1989) Proceedings of the Royal Society A: Mathematical, Physical and Engineering Sciences
D. Deutsch
0 references &#45; 0 with doi
">
<ellipse fill="#00cdcd" stroke="#00cdcd" cx="258.93" cy="-342" rx="57.3905" ry="18"/>
<text text-anchor="middle" x="258.93" y="-338.3" font-family="Times,serif" font-size="14.00">Deutsch1989</text>
</a>
</g>
</g>
<!-- 10.1098/rspa.1989.0099&#45;&gt;10.1103/PhysRevA.52.R2493 -->
<g id="edge33" class="edge"><title>10.1098/rspa.1989.0099&#45;&gt;10.1103/PhysRevA.52.R2493</title>
<path fill="none" stroke="black" stroke-width="1.4" d="M301.824,-354.013C311.256,-357.365 321.05,-361.378 329.774,-366 347.446,-375.364 349.592,-381.247 365.774,-393 376.613,-400.873 388.599,-409.359 399.24,-416.817"/>
<polygon fill="black" stroke="black" stroke-width="1.4" points="397.236,-419.687 407.437,-422.547 401.246,-413.949 397.236,-419.687"/>
</g>
<!-- 10.1098/rspa.1989.0099&#45;&gt;10.1103/PhysRevLett.74.4083 -->
<g id="edge32" class="edge"><title>10.1098/rspa.1989.0099&#45;&gt;10.1103/PhysRevLett.74.4083</title>
<path fill="none" stroke="black" stroke-width="1.4" d="M310.427,-350.028C328.745,-352.94 349.634,-356.261 368.762,-359.301"/>
<polygon fill="black" stroke="black" stroke-width="1.4" points="368.453,-362.796 378.879,-360.91 369.552,-355.883 368.453,-362.796"/>
</g>
<!-- 10.1098/rspa.1989.0099&#45;&gt;10.1103/PhysRevLett.74.4091 -->
<g id="edge34" class="edge"><title>10.1098/rspa.1989.0099&#45;&gt;10.1103/PhysRevLett.74.4091</title>
<path fill="none" stroke="black" stroke-width="1.4" d="M312.737,-335.471C332.729,-332.999 355.507,-330.182 375.621,-327.695"/>
<polygon fill="black" stroke="black" stroke-width="1.4" points="376.066,-331.167 385.561,-326.466 375.207,-324.22 376.066,-331.167"/>
</g>
<!-- 10.1126/science.261.5128.1569 -->
<g id="node28" class="node"><title>10.1126/science.261.5128.1569</title>
<g id="a_node28"><a xlink:title="A Potentially Realizable Quantum Computer
(1993) Science
S. Lloyd
0 references &#45; 0 with doi
">
<ellipse fill="#00cdcd" stroke="#00cdcd" cx="258.93" cy="-294" rx="49.2915" ry="18"/>
<text text-anchor="middle" x="258.93" y="-290.3" font-family="Times,serif" font-size="14.00">Lloyd1993</text>
</a>
</g>
</g>
<!-- 10.1126/science.261.5128.1569&#45;&gt;10.1103/PhysRevLett.74.4083 -->
<g id="edge35" class="edge"><title>10.1126/science.261.5128.1569&#45;&gt;10.1103/PhysRevLett.74.4083</title>
<path fill="none" stroke="black" stroke-width="1.4" d="M298.533,-304.865C308.951,-308.435 320.031,-312.837 329.774,-318 347.446,-327.364 348.233,-335.391 365.774,-345 370.522,-347.601 375.61,-350.037 380.767,-352.285"/>
<polygon fill="black" stroke="black" stroke-width="1.4" points="379.484,-355.542 390.063,-356.121 382.155,-349.071 379.484,-355.542"/>
</g>
<!-- 10.1126/science.261.5128.1569&#45;&gt;10.1103/PhysRevLett.74.4091 -->
<g id="edge36" class="edge"><title>10.1126/science.261.5128.1569&#45;&gt;10.1103/PhysRevLett.74.4091</title>
<path fill="none" stroke="black" stroke-width="1.4" d="M304.553,-301.094C326.641,-304.605 353.464,-308.87 376.609,-312.549"/>
<polygon fill="black" stroke="black" stroke-width="1.4" points="376.19,-316.026 386.616,-314.14 377.289,-309.113 376.19,-316.026"/>
</g>
<!-- 10.1103/PhysRev.114.1245&#45;&gt;10.1103/PhysRev.118.1534 -->
<g id="edge37" class="edge"><title>10.1103/PhysRev.114.1245&#45;&gt;10.1103/PhysRev.118.1534</title>
<path fill="none" stroke="black" stroke-width="1.4" d="M640.844,-146.047C663.634,-142.424 691.645,-137.971 715.474,-134.183"/>
<polygon fill="black" stroke="black" stroke-width="1.4" points="716.076,-137.631 725.403,-132.604 714.977,-130.718 716.076,-137.631"/>
</g>
<!-- 10.1103/PhysRev.114.1245&#45;&gt;10.1103/PhysRev.114.1219 -->
<g id="edge38" class="edge"><title>10.1103/PhysRev.114.1245&#45;&gt;10.1103/PhysRev.114.1219</title>
<path fill="none" stroke="black" stroke-width="1.4" d="M551.048,-159.473C531.991,-161.018 509.439,-162.351 489.103,-163.158"/>
<polygon fill="black" stroke="black" stroke-width="1.4" points="488.88,-159.664 479.012,-163.521 489.132,-166.66 488.88,-159.664"/>
</g>
<!-- 10.1103/PhysRevLett.74.4091&#45;&gt;10.1103/PhysRevLett.75.4714 -->
<g id="edge40" class="edge"><title>10.1103/PhysRevLett.74.4091&#45;&gt;10.1103/PhysRevLett.75.4714</title>
<path fill="none" stroke="black" stroke-width="1.4" d="M469.814,-331.233C478.84,-334.718 488.071,-339.237 495.762,-345 517.103,-360.99 510.449,-376.974 531.762,-393 535.613,-395.896 539.854,-398.479 544.261,-400.776"/>
<polygon fill="black" stroke="black" stroke-width="1.4" points="542.929,-404.017 553.469,-405.097 545.903,-397.68 542.929,-404.017"/>
</g>
<!-- 10.1103/PhysRevLett.74.4091&#45;&gt;10.1103/PhysRevLett.75.4710 -->
<g id="edge41" class="edge"><title>10.1103/PhysRevLett.74.4091&#45;&gt;10.1103/PhysRevLett.75.4710</title>
<path fill="none" stroke="black" stroke-width="1.4" d="M478.574,-321C492.803,-321 508.77,-321 524.214,-321"/>
<polygon fill="black" stroke="black" stroke-width="1.4" points="524.264,-324.5 534.264,-321 524.264,-317.5 524.264,-324.5"/>
</g>
<!-- 10.1103/PhysRevLett.79.2371 -->
<g id="node31" class="node"><title>10.1103/PhysRevLett.79.2371</title>
<g id="a_node31"><a xlink:title="Quantum Manipulations of Small Josephson Junctions
(1997) Physical Review Letters
Alexander Shnirman, Gerd Schön, Ziv Hermon
14 references &#45; 11 with doi
">
<ellipse fill="#ffd700" stroke="#ffd700" cx="767.945" cy="-284" rx="63.0888" ry="18"/>
<text text-anchor="middle" x="767.945" y="-280.3" font-family="Times,serif" font-size="14.00">Shnirman1997</text>
</a>
</g>
</g>
<!-- 10.1103/PhysRevLett.74.4091&#45;&gt;10.1103/PhysRevLett.79.2371 -->
<g id="edge39" class="edge"><title>10.1103/PhysRevLett.74.4091&#45;&gt;10.1103/PhysRevLett.79.2371</title>
<path fill="none" stroke="black" stroke-width="1.4" d="M469.441,-310.257C488.044,-305.39 510.918,-300.052 531.762,-297 586.044,-289.052 648.02,-285.864 694.719,-284.63"/>
<polygon fill="black" stroke="black" stroke-width="1.4" points="694.83,-288.128 704.743,-284.389 694.662,-281.131 694.83,-288.128"/>
</g>
<!-- 10.1103/PhysRevLett.79.2371&#45;&gt;10.1103/PhysRevA.62.012306 -->
<g id="edge42" class="edge"><title>10.1103/PhysRevLett.79.2371&#45;&gt;10.1103/PhysRevA.62.012306</title>
<path fill="none" stroke="black" stroke-width="1.4" d="M831.288,-284C899.14,-284 1006.88,-284 1073.86,-284"/>
<polygon fill="black" stroke="black" stroke-width="1.4" points="1074.25,-287.5 1084.25,-284 1074.25,-280.5 1074.25,-287.5"/>
</g>
</g>
</svg>
